G04 #@! TF.FileFunction,Copper,L1,Top,Signal*
%FSLAX46Y46*%
G04 Gerber Fmt 4.6, Leading zero omitted, Abs format (unit mm)*
G04 Created by KiCad (PCBNEW 4.0.5+dfsg1-4~bpo8+1) date Mon Mar  5 20:33:18 2018*
%MOMM*%
%LPD*%
G01*
G04 APERTURE LIST*
%ADD10C,0.100000*%
%ADD11R,1.550000X0.600000*%
%ADD12R,0.900000X0.500000*%
%ADD13R,0.800000X0.750000*%
%ADD14R,1.700000X1.700000*%
%ADD15O,1.700000X1.700000*%
%ADD16R,0.750000X0.800000*%
%ADD17R,1.000000X1.900000*%
%ADD18R,0.500000X0.900000*%
%ADD19R,0.800000X0.800000*%
%ADD20R,1.950000X0.400000*%
%ADD21O,1.250000X1.050000*%
%ADD22R,1.900000X2.100000*%
%ADD23R,1.900000X1.800000*%
%ADD24R,0.350000X0.350000*%
%ADD25R,0.900000X0.300000*%
%ADD26R,0.300000X0.900000*%
%ADD27R,1.800000X1.800000*%
%ADD28R,0.450000X0.250000*%
%ADD29R,0.700000X0.250000*%
%ADD30R,0.500000X1.000000*%
%ADD31C,0.600000*%
%ADD32C,0.200000*%
%ADD33C,0.254000*%
G04 APERTURE END LIST*
D10*
D11*
X43655000Y-45085000D03*
X43655000Y-46355000D03*
X43655000Y-47625000D03*
X43655000Y-48895000D03*
X49055000Y-48895000D03*
X49055000Y-47625000D03*
X49055000Y-46355000D03*
X49055000Y-45085000D03*
X43655000Y-52705000D03*
X43655000Y-53975000D03*
X43655000Y-55245000D03*
X43655000Y-56515000D03*
X49055000Y-56515000D03*
X49055000Y-55245000D03*
X49055000Y-53975000D03*
X49055000Y-52705000D03*
D12*
X38989000Y-56122000D03*
X38989000Y-54622000D03*
D13*
X39624000Y-52705000D03*
X41124000Y-52705000D03*
D14*
X36449000Y-57150000D03*
D15*
X36449000Y-54610000D03*
X36449000Y-52070000D03*
X36449000Y-49530000D03*
X36449000Y-46990000D03*
X36449000Y-44450000D03*
D16*
X41529000Y-42430000D03*
X41529000Y-43930000D03*
D17*
X67715000Y-57150000D03*
X70715000Y-57150000D03*
D16*
X63246000Y-45351000D03*
X63246000Y-46851000D03*
X61849000Y-45351000D03*
X61849000Y-46851000D03*
X66167000Y-45351000D03*
X66167000Y-46851000D03*
X64770000Y-45351000D03*
X64770000Y-46851000D03*
X50927000Y-43573000D03*
X50927000Y-45073000D03*
X50927000Y-51193000D03*
X50927000Y-52693000D03*
D12*
X39497000Y-41541000D03*
X39497000Y-43041000D03*
D18*
X55487000Y-41148000D03*
X53987000Y-41148000D03*
X60694000Y-60452000D03*
X59194000Y-60452000D03*
X55487000Y-60452000D03*
X53987000Y-60452000D03*
D12*
X60198000Y-45351000D03*
X60198000Y-46851000D03*
D19*
X54737000Y-43650000D03*
X54737000Y-45250000D03*
X59944000Y-57950000D03*
X59944000Y-56350000D03*
X54737000Y-57950000D03*
X54737000Y-56350000D03*
D20*
X68580000Y-52100000D03*
X68580000Y-51450000D03*
X68580000Y-50800000D03*
X68580000Y-50150000D03*
X68580000Y-49500000D03*
D21*
X68555000Y-53225000D03*
X68555000Y-48375000D03*
D22*
X71555000Y-47300000D03*
X71555000Y-54300000D03*
D23*
X71555000Y-51950000D03*
X71555000Y-49650000D03*
D24*
X61575000Y-52050000D03*
D25*
X61875000Y-51550000D03*
X61875000Y-51050000D03*
X61875000Y-50550000D03*
X61875000Y-50050000D03*
D24*
X61575000Y-49550000D03*
D26*
X61075000Y-49250000D03*
X60575000Y-49250000D03*
X60075000Y-49250000D03*
X59575000Y-49250000D03*
D24*
X59075000Y-49550000D03*
D25*
X58775000Y-50050000D03*
X58775000Y-50550000D03*
X58775000Y-51050000D03*
X58775000Y-51550000D03*
D24*
X59075000Y-52050000D03*
D26*
X59575000Y-52350000D03*
X60075000Y-52350000D03*
X60575000Y-52350000D03*
X61075000Y-52350000D03*
D27*
X60325000Y-50800000D03*
D28*
X40095000Y-50030000D03*
D29*
X39970000Y-49530000D03*
D28*
X40095000Y-49030000D03*
X38645000Y-49030000D03*
X38645000Y-49530000D03*
X38645000Y-50030000D03*
D30*
X39370000Y-49530000D03*
D28*
X64680000Y-50935000D03*
D29*
X64805000Y-51435000D03*
D28*
X64680000Y-51935000D03*
X66130000Y-51935000D03*
X66130000Y-51435000D03*
X66130000Y-50935000D03*
D30*
X65405000Y-51435000D03*
D31*
X41402000Y-51308000D03*
X40513000Y-43942000D03*
X51435000Y-56515000D03*
X51435000Y-48895000D03*
X51435000Y-50038000D03*
X51435000Y-42545000D03*
X55753000Y-45212000D03*
X57658000Y-49022000D03*
X60325000Y-50800000D03*
X66167000Y-44323000D03*
X64770000Y-44323000D03*
X63246000Y-44323000D03*
X61849000Y-44323000D03*
X62992000Y-51435000D03*
X66929000Y-49530000D03*
X71882000Y-57150000D03*
X61075000Y-48006000D03*
X41656000Y-47625000D03*
X40894000Y-50038000D03*
X41021000Y-54356000D03*
X35877500Y-41529000D03*
X41148000Y-55626000D03*
X41656000Y-46355000D03*
X51435000Y-55245000D03*
X55118000Y-53340000D03*
X51435000Y-53975000D03*
X55880000Y-53975000D03*
X51435000Y-47625000D03*
X56896000Y-50927000D03*
X51435000Y-46355000D03*
X57373027Y-52090641D03*
X65792116Y-49905155D03*
X66929000Y-51450000D03*
D32*
X42680000Y-56515000D02*
X41656000Y-56515000D01*
X43655000Y-56515000D02*
X42680000Y-56515000D01*
X43655000Y-48895000D02*
X41208198Y-48895000D01*
X41208198Y-48895000D02*
X40573198Y-49530000D01*
X40573198Y-49530000D02*
X40520000Y-49530000D01*
X40520000Y-49530000D02*
X39970000Y-49530000D01*
X39370000Y-49530000D02*
X39970000Y-49530000D01*
X39370000Y-49530000D02*
X39370000Y-50419000D01*
X39370000Y-49530000D02*
X39370000Y-48641000D01*
X41148000Y-51562000D02*
X41402000Y-51308000D01*
X41148000Y-52729000D02*
X41148000Y-51562000D01*
X39497000Y-43041000D02*
X39612000Y-43041000D01*
X39612000Y-43041000D02*
X40513000Y-43942000D01*
X41529000Y-43930000D02*
X40525000Y-43930000D01*
X40525000Y-43930000D02*
X40513000Y-43942000D01*
X43655000Y-45085000D02*
X42659000Y-45085000D01*
X42659000Y-45085000D02*
X41529000Y-43955000D01*
X41529000Y-43955000D02*
X41529000Y-43930000D01*
X41275000Y-52693000D02*
X43643000Y-52693000D01*
X43643000Y-52693000D02*
X43655000Y-52705000D01*
X36449000Y-52070000D02*
X38489000Y-50030000D01*
X38489000Y-50030000D02*
X38645000Y-50030000D01*
X65405000Y-52135000D02*
X65405000Y-52514500D01*
X65405000Y-51435000D02*
X65405000Y-52135000D01*
X49055000Y-56515000D02*
X51435000Y-56515000D01*
X49055000Y-48895000D02*
X51435000Y-48895000D01*
X50927000Y-51193000D02*
X50927000Y-50546000D01*
X50927000Y-50546000D02*
X51435000Y-50038000D01*
X50927000Y-43573000D02*
X50927000Y-43053000D01*
X50927000Y-43053000D02*
X51435000Y-42545000D01*
X64805000Y-51435000D02*
X65405000Y-51435000D01*
X64805000Y-51435000D02*
X62992000Y-51435000D01*
X54737000Y-45250000D02*
X55715000Y-45250000D01*
X55715000Y-45250000D02*
X55753000Y-45212000D01*
X57658000Y-49657000D02*
X57658000Y-49022000D01*
X58775000Y-50050000D02*
X58051000Y-50050000D01*
X58051000Y-50050000D02*
X57658000Y-49657000D01*
X66167000Y-45351000D02*
X66167000Y-44323000D01*
X64770000Y-45351000D02*
X64770000Y-44323000D01*
X63246000Y-45351000D02*
X63246000Y-44323000D01*
X61849000Y-45351000D02*
X61849000Y-44323000D01*
X61875000Y-51050000D02*
X62605869Y-51050000D01*
X62605869Y-51050000D02*
X62990869Y-51435000D01*
X62990869Y-51435000D02*
X62992000Y-51435000D01*
X68580000Y-49500000D02*
X66959000Y-49500000D01*
X66959000Y-49500000D02*
X66929000Y-49530000D01*
X71882000Y-57150000D02*
X70715000Y-57150000D01*
X61075000Y-48006000D02*
X61075000Y-47625000D01*
X61075000Y-47625000D02*
X61849000Y-46851000D01*
X61075000Y-49250000D02*
X61075000Y-48006000D01*
X63234000Y-46863000D02*
X63246000Y-46851000D01*
X61849000Y-46851000D02*
X63246000Y-46851000D01*
X60575000Y-49250000D02*
X61075000Y-49250000D01*
X49055000Y-52705000D02*
X50915000Y-52705000D01*
X50915000Y-52705000D02*
X50927000Y-52693000D01*
X49055000Y-45085000D02*
X50915000Y-45085000D01*
X50915000Y-45085000D02*
X50927000Y-45073000D01*
X57789000Y-50550000D02*
X57404000Y-50165000D01*
X58775000Y-50550000D02*
X57789000Y-50550000D01*
X61575000Y-49550000D02*
X63226000Y-49550000D01*
X63226000Y-49550000D02*
X64770000Y-48006000D01*
X64770000Y-46851000D02*
X64770000Y-48006000D01*
X64770000Y-46851000D02*
X66167000Y-46851000D01*
X55487000Y-41148000D02*
X55487000Y-43500000D01*
X55487000Y-43500000D02*
X55337000Y-43650000D01*
X55337000Y-43650000D02*
X54737000Y-43650000D01*
X60694000Y-60452000D02*
X60694000Y-58100000D01*
X60694000Y-58100000D02*
X60544000Y-57950000D01*
X60544000Y-57950000D02*
X59944000Y-57950000D01*
X59944000Y-56350000D02*
X59944000Y-55750000D01*
X59944000Y-55750000D02*
X61075000Y-54619000D01*
X61075000Y-54619000D02*
X61075000Y-53000000D01*
X61075000Y-53000000D02*
X61075000Y-52350000D01*
X55487000Y-60452000D02*
X55487000Y-58100000D01*
X55487000Y-58100000D02*
X55337000Y-57950000D01*
X55337000Y-57950000D02*
X54737000Y-57950000D01*
X60575000Y-52350000D02*
X60575000Y-53000000D01*
X60575000Y-53000000D02*
X57225000Y-56350000D01*
X57225000Y-56350000D02*
X55337000Y-56350000D01*
X55337000Y-56350000D02*
X54737000Y-56350000D01*
X38481000Y-51943000D02*
X38507000Y-51943000D01*
X38507000Y-51943000D02*
X40095000Y-50355000D01*
X40095000Y-50355000D02*
X40095000Y-50030000D01*
X38481000Y-53664000D02*
X38481000Y-51943000D01*
X38989000Y-54622000D02*
X38989000Y-54172000D01*
X38989000Y-54172000D02*
X38481000Y-53664000D01*
X38989000Y-54622000D02*
X36461000Y-54622000D01*
X36461000Y-54622000D02*
X36449000Y-54610000D01*
X42164000Y-47625000D02*
X41656000Y-47625000D01*
X42164000Y-47625000D02*
X43655000Y-47625000D01*
X40095000Y-50030000D02*
X40886000Y-50030000D01*
X40886000Y-50030000D02*
X40894000Y-50038000D01*
X42164000Y-53975000D02*
X41402000Y-53975000D01*
X41402000Y-53975000D02*
X41021000Y-54356000D01*
X42164000Y-53975000D02*
X43655000Y-53975000D01*
X36449000Y-49530000D02*
X38645000Y-49530000D01*
X39497000Y-41541000D02*
X35889500Y-41541000D01*
X35889500Y-41541000D02*
X35877500Y-41529000D01*
X42164000Y-55245000D02*
X41529000Y-55245000D01*
X41529000Y-55245000D02*
X41148000Y-55626000D01*
X42164000Y-55245000D02*
X43655000Y-55245000D01*
X38645000Y-49030000D02*
X38489000Y-49030000D01*
X38489000Y-49030000D02*
X37298999Y-47839999D01*
X37298999Y-47839999D02*
X36449000Y-46990000D01*
X42164000Y-46355000D02*
X41656000Y-46355000D01*
X42164000Y-46355000D02*
X43655000Y-46355000D01*
X36449000Y-44450000D02*
X37651081Y-44450000D01*
X37651081Y-44450000D02*
X40095000Y-46893919D01*
X40095000Y-46893919D02*
X40095000Y-48096000D01*
X40095000Y-48096000D02*
X40095000Y-49030000D01*
X36449000Y-44595000D02*
X36449000Y-44450000D01*
X60075000Y-48600000D02*
X60198000Y-48477000D01*
X60198000Y-48477000D02*
X60198000Y-46851000D01*
X60075000Y-49250000D02*
X60075000Y-48600000D01*
X49055000Y-55245000D02*
X51435000Y-55245000D01*
X56007000Y-53340000D02*
X55118000Y-53340000D01*
X58885000Y-53340000D02*
X56007000Y-53340000D01*
X59575000Y-52350000D02*
X59575000Y-52650000D01*
X59575000Y-52650000D02*
X58885000Y-53340000D01*
X49055000Y-53975000D02*
X51435000Y-53975000D01*
X57404000Y-53975000D02*
X55880000Y-53975000D01*
X59018002Y-53975000D02*
X57404000Y-53975000D01*
X60075000Y-52350000D02*
X60075000Y-52918002D01*
X60075000Y-52918002D02*
X59018002Y-53975000D01*
X49055000Y-47625000D02*
X51435000Y-47625000D01*
X58125000Y-51550000D02*
X57519000Y-51550000D01*
X57519000Y-51550000D02*
X56896000Y-50927000D01*
X58775000Y-51550000D02*
X58125000Y-51550000D01*
X49055000Y-46355000D02*
X51435000Y-46355000D01*
X59075000Y-52050000D02*
X57373027Y-52090641D01*
X57384000Y-52050000D02*
X57384000Y-52079668D01*
X57384000Y-52079668D02*
X57373027Y-52090641D01*
X67056000Y-52449000D02*
X66744000Y-52449000D01*
X66744000Y-52449000D02*
X66230000Y-51935000D01*
X67405000Y-52100000D02*
X67056000Y-52449000D01*
X68580000Y-52100000D02*
X67405000Y-52100000D01*
X66230000Y-51935000D02*
X66130000Y-51935000D01*
X66130000Y-51935000D02*
X66130000Y-56265000D01*
X66130000Y-56265000D02*
X67015000Y-57150000D01*
X67015000Y-57150000D02*
X67715000Y-57150000D01*
X67545000Y-56980000D02*
X67715000Y-57150000D01*
X68580000Y-52100000D02*
X67805000Y-52100000D01*
X61875000Y-50050000D02*
X63232869Y-50050000D01*
X63232869Y-50050000D02*
X63377714Y-49905155D01*
X63377714Y-49905155D02*
X65792116Y-49905155D01*
X61887000Y-50038000D02*
X61875000Y-50050000D01*
X66929000Y-51450000D02*
X66145000Y-51450000D01*
X68580000Y-51450000D02*
X66929000Y-51450000D01*
X66145000Y-51450000D02*
X66130000Y-51435000D01*
X61875000Y-50550000D02*
X63242000Y-50550000D01*
X63242000Y-50550000D02*
X63500000Y-50292000D01*
X63500000Y-50292000D02*
X65387000Y-50292000D01*
X65387000Y-50292000D02*
X66030000Y-50935000D01*
X66030000Y-50935000D02*
X66130000Y-50935000D01*
X66929000Y-50451000D02*
X66707000Y-50451000D01*
X67056000Y-50451000D02*
X66929000Y-50451000D01*
X67405000Y-50800000D02*
X67056000Y-50451000D01*
X66707000Y-50458000D02*
X66230000Y-50935000D01*
X66707000Y-50451000D02*
X66707000Y-50458000D01*
X68580000Y-50800000D02*
X67405000Y-50800000D01*
X61879000Y-50546000D02*
X61875000Y-50550000D01*
X66230000Y-50935000D02*
X66130000Y-50935000D01*
D33*
G36*
X53414004Y-40482181D02*
X53356000Y-40622215D01*
X53356000Y-40925750D01*
X53451250Y-41021000D01*
X53862000Y-41021000D01*
X53862000Y-41001000D01*
X54112000Y-41001000D01*
X54112000Y-41021000D01*
X54522750Y-41021000D01*
X54618000Y-40925750D01*
X54618000Y-40622215D01*
X54559996Y-40482181D01*
X54538815Y-40461000D01*
X54937811Y-40461000D01*
X54879141Y-40546866D01*
X54848536Y-40698000D01*
X54848536Y-41598000D01*
X54875103Y-41739190D01*
X54958546Y-41868865D01*
X55006000Y-41901289D01*
X55006000Y-42861536D01*
X54337000Y-42861536D01*
X54195810Y-42888103D01*
X54066135Y-42971546D01*
X53979141Y-43098866D01*
X53948536Y-43250000D01*
X53948536Y-44050000D01*
X53975103Y-44191190D01*
X54058546Y-44320865D01*
X54185866Y-44407859D01*
X54337000Y-44438464D01*
X55137000Y-44438464D01*
X55278190Y-44411897D01*
X55407865Y-44328454D01*
X55494859Y-44201134D01*
X55516283Y-44095338D01*
X55521071Y-44094386D01*
X55677118Y-43990118D01*
X55827118Y-43840118D01*
X55931386Y-43684071D01*
X55953479Y-43573000D01*
X55968000Y-43500000D01*
X55968000Y-42535855D01*
X56100881Y-42535855D01*
X56205098Y-42788080D01*
X56397905Y-42981224D01*
X56649947Y-43085881D01*
X56922855Y-43086119D01*
X57175080Y-42981902D01*
X57368224Y-42789095D01*
X57472881Y-42537053D01*
X57473119Y-42264145D01*
X57368902Y-42011920D01*
X57176095Y-41818776D01*
X56924053Y-41714119D01*
X56651145Y-41713881D01*
X56398920Y-41818098D01*
X56205776Y-42010905D01*
X56101119Y-42262947D01*
X56100881Y-42535855D01*
X55968000Y-42535855D01*
X55968000Y-41902106D01*
X56007865Y-41876454D01*
X56094859Y-41749134D01*
X56125464Y-41598000D01*
X56125464Y-40698000D01*
X56098897Y-40556810D01*
X56037245Y-40461000D01*
X67489000Y-40461000D01*
X67489000Y-41910000D01*
X67523711Y-42084504D01*
X67622559Y-42232441D01*
X67770496Y-42331289D01*
X67818000Y-42340738D01*
X67818000Y-47718760D01*
X67794652Y-47734361D01*
X67598256Y-48028289D01*
X67529291Y-48375000D01*
X67598256Y-48721711D01*
X67725093Y-48911536D01*
X67605000Y-48911536D01*
X67463810Y-48938103D01*
X67364298Y-49002137D01*
X67315259Y-48953013D01*
X67065054Y-48849118D01*
X66794135Y-48848882D01*
X66543748Y-48952339D01*
X66352013Y-49143741D01*
X66248118Y-49393946D01*
X66248114Y-49398029D01*
X66178375Y-49328168D01*
X65928170Y-49224273D01*
X65657251Y-49224037D01*
X65406864Y-49327494D01*
X65310035Y-49424155D01*
X63377714Y-49424155D01*
X63193643Y-49460769D01*
X63134930Y-49500000D01*
X63037596Y-49565036D01*
X63033632Y-49569000D01*
X62515443Y-49569000D01*
X62476134Y-49542141D01*
X62325000Y-49511536D01*
X62131000Y-49511536D01*
X62131000Y-49422998D01*
X62075252Y-49422998D01*
X62131000Y-49367250D01*
X62131000Y-49299215D01*
X62072996Y-49159181D01*
X61965820Y-49052004D01*
X61825786Y-48994000D01*
X61757750Y-48994000D01*
X61702002Y-49049748D01*
X61702002Y-48994000D01*
X61613464Y-48994000D01*
X61613464Y-48800000D01*
X61586897Y-48658810D01*
X61556000Y-48610794D01*
X61556000Y-48488079D01*
X61651987Y-48392259D01*
X61755882Y-48142054D01*
X61756118Y-47871135D01*
X61683895Y-47696341D01*
X61740772Y-47639464D01*
X62224000Y-47639464D01*
X62365190Y-47612897D01*
X62494865Y-47529454D01*
X62547685Y-47452149D01*
X62592546Y-47521865D01*
X62719866Y-47608859D01*
X62871000Y-47639464D01*
X63621000Y-47639464D01*
X63762190Y-47612897D01*
X63891865Y-47529454D01*
X63978859Y-47402134D01*
X64009464Y-47251000D01*
X64009464Y-47073250D01*
X64014000Y-47073250D01*
X64014000Y-47326786D01*
X64072004Y-47466820D01*
X64179181Y-47573996D01*
X64319215Y-47632000D01*
X64547750Y-47632000D01*
X64643000Y-47536750D01*
X64643000Y-46978000D01*
X64897000Y-46978000D01*
X64897000Y-47536750D01*
X64992250Y-47632000D01*
X65220785Y-47632000D01*
X65360819Y-47573996D01*
X65467996Y-47466820D01*
X65468500Y-47465603D01*
X65469004Y-47466820D01*
X65576181Y-47573996D01*
X65716215Y-47632000D01*
X65944750Y-47632000D01*
X66040000Y-47536750D01*
X66040000Y-46978000D01*
X66294000Y-46978000D01*
X66294000Y-47536750D01*
X66389250Y-47632000D01*
X66617785Y-47632000D01*
X66757819Y-47573996D01*
X66864996Y-47466820D01*
X66923000Y-47326786D01*
X66923000Y-47073250D01*
X66827750Y-46978000D01*
X66294000Y-46978000D01*
X66040000Y-46978000D01*
X65506250Y-46978000D01*
X65468500Y-47015750D01*
X65430750Y-46978000D01*
X64897000Y-46978000D01*
X64643000Y-46978000D01*
X64109250Y-46978000D01*
X64014000Y-47073250D01*
X64009464Y-47073250D01*
X64009464Y-46451000D01*
X63982897Y-46309810D01*
X63899454Y-46180135D01*
X63782202Y-46100020D01*
X63891865Y-46029454D01*
X63978859Y-45902134D01*
X64007946Y-45758495D01*
X64033103Y-45892190D01*
X64116546Y-46021865D01*
X64236897Y-46104097D01*
X64179181Y-46128004D01*
X64072004Y-46235180D01*
X64014000Y-46375214D01*
X64014000Y-46628750D01*
X64109250Y-46724000D01*
X64643000Y-46724000D01*
X64643000Y-46704000D01*
X64897000Y-46704000D01*
X64897000Y-46724000D01*
X65430750Y-46724000D01*
X65468500Y-46686250D01*
X65506250Y-46724000D01*
X66040000Y-46724000D01*
X66040000Y-46704000D01*
X66294000Y-46704000D01*
X66294000Y-46724000D01*
X66827750Y-46724000D01*
X66923000Y-46628750D01*
X66923000Y-46375214D01*
X66864996Y-46235180D01*
X66757819Y-46128004D01*
X66698133Y-46103281D01*
X66812865Y-46029454D01*
X66899859Y-45902134D01*
X66930464Y-45751000D01*
X66930464Y-44951000D01*
X66903897Y-44809810D01*
X66820454Y-44680135D01*
X66770308Y-44645872D01*
X66847882Y-44459054D01*
X66848118Y-44188135D01*
X66744661Y-43937748D01*
X66553259Y-43746013D01*
X66303054Y-43642118D01*
X66032135Y-43641882D01*
X65781748Y-43745339D01*
X65590013Y-43936741D01*
X65486118Y-44186946D01*
X65485882Y-44457865D01*
X65563359Y-44645376D01*
X65521135Y-44672546D01*
X65468315Y-44749851D01*
X65423454Y-44680135D01*
X65373308Y-44645872D01*
X65450882Y-44459054D01*
X65451118Y-44188135D01*
X65347661Y-43937748D01*
X65156259Y-43746013D01*
X64906054Y-43642118D01*
X64635135Y-43641882D01*
X64384748Y-43745339D01*
X64193013Y-43936741D01*
X64089118Y-44186946D01*
X64088882Y-44457865D01*
X64166359Y-44645376D01*
X64124135Y-44672546D01*
X64037141Y-44799866D01*
X64008054Y-44943505D01*
X63982897Y-44809810D01*
X63899454Y-44680135D01*
X63849308Y-44645872D01*
X63926882Y-44459054D01*
X63927118Y-44188135D01*
X63823661Y-43937748D01*
X63632259Y-43746013D01*
X63382054Y-43642118D01*
X63111135Y-43641882D01*
X62860748Y-43745339D01*
X62669013Y-43936741D01*
X62565118Y-44186946D01*
X62564882Y-44457865D01*
X62642359Y-44645376D01*
X62600135Y-44672546D01*
X62547315Y-44749851D01*
X62502454Y-44680135D01*
X62452308Y-44645872D01*
X62529882Y-44459054D01*
X62530118Y-44188135D01*
X62426661Y-43937748D01*
X62235259Y-43746013D01*
X61985054Y-43642118D01*
X61714135Y-43641882D01*
X61463748Y-43745339D01*
X61272013Y-43936741D01*
X61168118Y-44186946D01*
X61167882Y-44457865D01*
X61245359Y-44645376D01*
X61203135Y-44672546D01*
X61116141Y-44799866D01*
X61085536Y-44951000D01*
X61085536Y-45751000D01*
X61112103Y-45892190D01*
X61195546Y-46021865D01*
X61312798Y-46101980D01*
X61203135Y-46172546D01*
X61116141Y-46299866D01*
X61085536Y-46451000D01*
X61085536Y-46934228D01*
X61036464Y-46983300D01*
X61036464Y-46601000D01*
X61009897Y-46459810D01*
X60926454Y-46330135D01*
X60799134Y-46243141D01*
X60648000Y-46212536D01*
X59748000Y-46212536D01*
X59606810Y-46239103D01*
X59477135Y-46322546D01*
X59390141Y-46449866D01*
X59359536Y-46601000D01*
X59359536Y-47101000D01*
X59386103Y-47242190D01*
X59469546Y-47371865D01*
X59596866Y-47458859D01*
X59717000Y-47483186D01*
X59717000Y-48286644D01*
X59633549Y-48411536D01*
X59425000Y-48411536D01*
X59283810Y-48438103D01*
X59154135Y-48521546D01*
X59067141Y-48648866D01*
X59036536Y-48800000D01*
X59036536Y-48986536D01*
X58900000Y-48986536D01*
X58758810Y-49013103D01*
X58629135Y-49096546D01*
X58542141Y-49223866D01*
X58511536Y-49375000D01*
X58511536Y-49511536D01*
X58325000Y-49511536D01*
X58213712Y-49532476D01*
X58162178Y-49480942D01*
X58234987Y-49408259D01*
X58338882Y-49158054D01*
X58339118Y-48887135D01*
X58235661Y-48636748D01*
X58044259Y-48445013D01*
X57794054Y-48341118D01*
X57523135Y-48340882D01*
X57272748Y-48444339D01*
X57081013Y-48635741D01*
X56977118Y-48885946D01*
X56976882Y-49156865D01*
X57080339Y-49407252D01*
X57177000Y-49504081D01*
X57177000Y-49657000D01*
X57199535Y-49770290D01*
X57213614Y-49841071D01*
X57317882Y-49997118D01*
X57710882Y-50390118D01*
X57866929Y-50494386D01*
X58051000Y-50531000D01*
X58134557Y-50531000D01*
X58163798Y-50550980D01*
X58054135Y-50621546D01*
X58051775Y-50625000D01*
X58039250Y-50625000D01*
X57944000Y-50720250D01*
X57944000Y-50775785D01*
X57955881Y-50804469D01*
X57936536Y-50900000D01*
X57936536Y-51069000D01*
X57718236Y-51069000D01*
X57577000Y-50927764D01*
X57577118Y-50792135D01*
X57473661Y-50541748D01*
X57282259Y-50350013D01*
X57032054Y-50246118D01*
X56761135Y-50245882D01*
X56510748Y-50349339D01*
X56319013Y-50540741D01*
X56215118Y-50790946D01*
X56214882Y-51061865D01*
X56318339Y-51312252D01*
X56509741Y-51503987D01*
X56759946Y-51607882D01*
X56892592Y-51607998D01*
X56796040Y-51704382D01*
X56692145Y-51954587D01*
X56691909Y-52225506D01*
X56795366Y-52475893D01*
X56986768Y-52667628D01*
X57236973Y-52771523D01*
X57507892Y-52771759D01*
X57758279Y-52668302D01*
X57866782Y-52559988D01*
X58686737Y-52540408D01*
X58748866Y-52582859D01*
X58900000Y-52613464D01*
X58931299Y-52613464D01*
X58685764Y-52859000D01*
X55600079Y-52859000D01*
X55504259Y-52763013D01*
X55254054Y-52659118D01*
X54983135Y-52658882D01*
X54732748Y-52762339D01*
X54541013Y-52953741D01*
X54437118Y-53203946D01*
X54436882Y-53474865D01*
X54540339Y-53725252D01*
X54731741Y-53916987D01*
X54981946Y-54020882D01*
X55198959Y-54021071D01*
X55198882Y-54109865D01*
X55302339Y-54360252D01*
X55493741Y-54551987D01*
X55743946Y-54655882D01*
X56014865Y-54656118D01*
X56265252Y-54552661D01*
X56362081Y-54456000D01*
X56549209Y-54456000D01*
X56398920Y-54518098D01*
X56205776Y-54710905D01*
X56101119Y-54962947D01*
X56100881Y-55235855D01*
X56205098Y-55488080D01*
X56397905Y-55681224D01*
X56649947Y-55785881D01*
X56922855Y-55786119D01*
X57175080Y-55681902D01*
X57368224Y-55489095D01*
X57472881Y-55237053D01*
X57473119Y-54964145D01*
X57368902Y-54711920D01*
X57176095Y-54518776D01*
X57024914Y-54456000D01*
X58438764Y-54456000D01*
X57025764Y-55869000D01*
X55510223Y-55869000D01*
X55498897Y-55808810D01*
X55415454Y-55679135D01*
X55288134Y-55592141D01*
X55137000Y-55561536D01*
X54337000Y-55561536D01*
X54195810Y-55588103D01*
X54066135Y-55671546D01*
X53979141Y-55798866D01*
X53948536Y-55950000D01*
X53948536Y-56750000D01*
X53975103Y-56891190D01*
X54058546Y-57020865D01*
X54185866Y-57107859D01*
X54337000Y-57138464D01*
X55137000Y-57138464D01*
X55278190Y-57111897D01*
X55407865Y-57028454D01*
X55494859Y-56901134D01*
X55509061Y-56831000D01*
X57225000Y-56831000D01*
X57409071Y-56794386D01*
X57565118Y-56690118D01*
X60594000Y-53661237D01*
X60594000Y-54419763D01*
X59603882Y-55409882D01*
X59499614Y-55565929D01*
X59498796Y-55570042D01*
X59402810Y-55588103D01*
X59273135Y-55671546D01*
X59186141Y-55798866D01*
X59155536Y-55950000D01*
X59155536Y-56750000D01*
X59182103Y-56891190D01*
X59265546Y-57020865D01*
X59392866Y-57107859D01*
X59544000Y-57138464D01*
X60344000Y-57138464D01*
X60485190Y-57111897D01*
X60614865Y-57028454D01*
X60701859Y-56901134D01*
X60732464Y-56750000D01*
X60732464Y-55950000D01*
X60705897Y-55808810D01*
X60650898Y-55723338D01*
X61308029Y-55066208D01*
X61307881Y-55235855D01*
X61412098Y-55488080D01*
X61604905Y-55681224D01*
X61856947Y-55785881D01*
X62129855Y-55786119D01*
X62382080Y-55681902D01*
X62575224Y-55489095D01*
X62679881Y-55237053D01*
X62680119Y-54964145D01*
X62575902Y-54711920D01*
X62383095Y-54518776D01*
X62131053Y-54414119D01*
X61858145Y-54413881D01*
X61605920Y-54518098D01*
X61556000Y-54567931D01*
X61556000Y-52990443D01*
X61582859Y-52951134D01*
X61613464Y-52800000D01*
X61613464Y-52613464D01*
X61750000Y-52613464D01*
X61891190Y-52586897D01*
X62020865Y-52503454D01*
X62107859Y-52376134D01*
X62138464Y-52225000D01*
X62138464Y-52088464D01*
X62325000Y-52088464D01*
X62466190Y-52061897D01*
X62581496Y-51987700D01*
X62605741Y-52011987D01*
X62855946Y-52115882D01*
X63126865Y-52116118D01*
X63377252Y-52012661D01*
X63474081Y-51916000D01*
X64066536Y-51916000D01*
X64066536Y-52060000D01*
X64093103Y-52201190D01*
X64176546Y-52330865D01*
X64303866Y-52417859D01*
X64455000Y-52448464D01*
X64905000Y-52448464D01*
X64924000Y-52444889D01*
X64924000Y-52514500D01*
X64960614Y-52698571D01*
X65064882Y-52854618D01*
X65220929Y-52958886D01*
X65405000Y-52995500D01*
X65589071Y-52958886D01*
X65649000Y-52918842D01*
X65649000Y-56265000D01*
X65671902Y-56380135D01*
X65685614Y-56449071D01*
X65789882Y-56605118D01*
X66674882Y-57490118D01*
X66826536Y-57591451D01*
X66826536Y-58100000D01*
X66853103Y-58241190D01*
X66936546Y-58370865D01*
X67063866Y-58457859D01*
X67215000Y-58488464D01*
X67818000Y-58488464D01*
X67818000Y-59259262D01*
X67770496Y-59268711D01*
X67622559Y-59367559D01*
X67523711Y-59515496D01*
X67489000Y-59690000D01*
X67489000Y-61139000D01*
X61243189Y-61139000D01*
X61301859Y-61053134D01*
X61332464Y-60902000D01*
X61332464Y-60002000D01*
X61305897Y-59860810D01*
X61222454Y-59731135D01*
X61175000Y-59698711D01*
X61175000Y-58100000D01*
X61138386Y-57915929D01*
X61034118Y-57759882D01*
X60884118Y-57609882D01*
X60728071Y-57505614D01*
X60723958Y-57504796D01*
X60705897Y-57408810D01*
X60622454Y-57279135D01*
X60495134Y-57192141D01*
X60344000Y-57161536D01*
X59544000Y-57161536D01*
X59402810Y-57188103D01*
X59273135Y-57271546D01*
X59186141Y-57398866D01*
X59155536Y-57550000D01*
X59155536Y-58350000D01*
X59182103Y-58491190D01*
X59265546Y-58620865D01*
X59392866Y-58707859D01*
X59544000Y-58738464D01*
X60213000Y-58738464D01*
X60213000Y-59697894D01*
X60173135Y-59723546D01*
X60086141Y-59850866D01*
X60055536Y-60002000D01*
X60055536Y-60902000D01*
X60082103Y-61043190D01*
X60143755Y-61139000D01*
X59745815Y-61139000D01*
X59766996Y-61117819D01*
X59825000Y-60977785D01*
X59825000Y-60674250D01*
X59729750Y-60579000D01*
X59319000Y-60579000D01*
X59319000Y-60599000D01*
X59069000Y-60599000D01*
X59069000Y-60579000D01*
X58658250Y-60579000D01*
X58563000Y-60674250D01*
X58563000Y-60977785D01*
X58621004Y-61117819D01*
X58642185Y-61139000D01*
X56036189Y-61139000D01*
X56094859Y-61053134D01*
X56125464Y-60902000D01*
X56125464Y-60002000D01*
X56111204Y-59926215D01*
X58563000Y-59926215D01*
X58563000Y-60229750D01*
X58658250Y-60325000D01*
X59069000Y-60325000D01*
X59069000Y-59716250D01*
X59319000Y-59716250D01*
X59319000Y-60325000D01*
X59729750Y-60325000D01*
X59825000Y-60229750D01*
X59825000Y-59926215D01*
X59766996Y-59786181D01*
X59659820Y-59679004D01*
X59519786Y-59621000D01*
X59414250Y-59621000D01*
X59319000Y-59716250D01*
X59069000Y-59716250D01*
X58973750Y-59621000D01*
X58868214Y-59621000D01*
X58728180Y-59679004D01*
X58621004Y-59786181D01*
X58563000Y-59926215D01*
X56111204Y-59926215D01*
X56098897Y-59860810D01*
X56015454Y-59731135D01*
X55968000Y-59698711D01*
X55968000Y-59335855D01*
X57207881Y-59335855D01*
X57312098Y-59588080D01*
X57504905Y-59781224D01*
X57756947Y-59885881D01*
X58029855Y-59886119D01*
X58282080Y-59781902D01*
X58475224Y-59589095D01*
X58579881Y-59337053D01*
X58580119Y-59064145D01*
X58475902Y-58811920D01*
X58283095Y-58618776D01*
X58031053Y-58514119D01*
X57758145Y-58513881D01*
X57505920Y-58618098D01*
X57312776Y-58810905D01*
X57208119Y-59062947D01*
X57207881Y-59335855D01*
X55968000Y-59335855D01*
X55968000Y-58100000D01*
X55931386Y-57915929D01*
X55827118Y-57759882D01*
X55677118Y-57609882D01*
X55521071Y-57505614D01*
X55516958Y-57504796D01*
X55498897Y-57408810D01*
X55415454Y-57279135D01*
X55288134Y-57192141D01*
X55137000Y-57161536D01*
X54337000Y-57161536D01*
X54195810Y-57188103D01*
X54066135Y-57271546D01*
X53979141Y-57398866D01*
X53948536Y-57550000D01*
X53948536Y-58350000D01*
X53975103Y-58491190D01*
X54058546Y-58620865D01*
X54185866Y-58707859D01*
X54337000Y-58738464D01*
X55006000Y-58738464D01*
X55006000Y-59697894D01*
X54966135Y-59723546D01*
X54879141Y-59850866D01*
X54848536Y-60002000D01*
X54848536Y-60902000D01*
X54875103Y-61043190D01*
X54936755Y-61139000D01*
X54538815Y-61139000D01*
X54559996Y-61117819D01*
X54618000Y-60977785D01*
X54618000Y-60674250D01*
X54522750Y-60579000D01*
X54112000Y-60579000D01*
X54112000Y-60599000D01*
X53862000Y-60599000D01*
X53862000Y-60579000D01*
X53451250Y-60579000D01*
X53356000Y-60674250D01*
X53356000Y-60977785D01*
X53414004Y-61117819D01*
X53435185Y-61139000D01*
X50927000Y-61139000D01*
X50927000Y-59926215D01*
X53356000Y-59926215D01*
X53356000Y-60229750D01*
X53451250Y-60325000D01*
X53862000Y-60325000D01*
X53862000Y-59716250D01*
X54112000Y-59716250D01*
X54112000Y-60325000D01*
X54522750Y-60325000D01*
X54618000Y-60229750D01*
X54618000Y-59926215D01*
X54559996Y-59786181D01*
X54452820Y-59679004D01*
X54312786Y-59621000D01*
X54207250Y-59621000D01*
X54112000Y-59716250D01*
X53862000Y-59716250D01*
X53766750Y-59621000D01*
X53661214Y-59621000D01*
X53521180Y-59679004D01*
X53414004Y-59786181D01*
X53356000Y-59926215D01*
X50927000Y-59926215D01*
X50927000Y-59335855D01*
X52000881Y-59335855D01*
X52105098Y-59588080D01*
X52297905Y-59781224D01*
X52549947Y-59885881D01*
X52822855Y-59886119D01*
X53075080Y-59781902D01*
X53268224Y-59589095D01*
X53372881Y-59337053D01*
X53373119Y-59064145D01*
X53268902Y-58811920D01*
X53076095Y-58618776D01*
X52824053Y-58514119D01*
X52551145Y-58513881D01*
X52298920Y-58618098D01*
X52105776Y-58810905D01*
X52001119Y-59062947D01*
X52000881Y-59335855D01*
X50927000Y-59335855D01*
X50927000Y-56996000D01*
X50952921Y-56996000D01*
X51048741Y-57091987D01*
X51298946Y-57195882D01*
X51569865Y-57196118D01*
X51820252Y-57092661D01*
X52011987Y-56901259D01*
X52115882Y-56651054D01*
X52116118Y-56380135D01*
X52012661Y-56129748D01*
X51821259Y-55938013D01*
X51681515Y-55879986D01*
X51820252Y-55822661D01*
X52011987Y-55631259D01*
X52115882Y-55381054D01*
X52116118Y-55110135D01*
X52012661Y-54859748D01*
X51821259Y-54668013D01*
X51681515Y-54609986D01*
X51820252Y-54552661D01*
X52011987Y-54361259D01*
X52115882Y-54111054D01*
X52116118Y-53840135D01*
X52012661Y-53589748D01*
X51821259Y-53398013D01*
X51619557Y-53314259D01*
X51624996Y-53308820D01*
X51683000Y-53168786D01*
X51683000Y-52915250D01*
X51587750Y-52820000D01*
X51054000Y-52820000D01*
X51054000Y-53378750D01*
X51065911Y-53390661D01*
X51049748Y-53397339D01*
X50952919Y-53494000D01*
X50927000Y-53494000D01*
X50927000Y-52546000D01*
X51054000Y-52546000D01*
X51054000Y-52566000D01*
X51587750Y-52566000D01*
X51683000Y-52470750D01*
X51683000Y-52217214D01*
X51624996Y-52077180D01*
X51517819Y-51970004D01*
X51458133Y-51945281D01*
X51572865Y-51871454D01*
X51659859Y-51744134D01*
X51690464Y-51593000D01*
X51690464Y-50793000D01*
X51668865Y-50678212D01*
X51820252Y-50615661D01*
X52011987Y-50424259D01*
X52115882Y-50174054D01*
X52116118Y-49903135D01*
X52012661Y-49652748D01*
X51826580Y-49466344D01*
X52011987Y-49281259D01*
X52115882Y-49031054D01*
X52116118Y-48760135D01*
X52012661Y-48509748D01*
X51821259Y-48318013D01*
X51681515Y-48259986D01*
X51820252Y-48202661D01*
X52011987Y-48011259D01*
X52115882Y-47761054D01*
X52116118Y-47490135D01*
X52012661Y-47239748D01*
X51821259Y-47048013D01*
X51681515Y-46989986D01*
X51820252Y-46932661D01*
X52011987Y-46741259D01*
X52028250Y-46702093D01*
X52105098Y-46888080D01*
X52297905Y-47081224D01*
X52549947Y-47185881D01*
X52822855Y-47186119D01*
X53075080Y-47081902D01*
X53268224Y-46889095D01*
X53372881Y-46637053D01*
X53373119Y-46364145D01*
X53268902Y-46111920D01*
X53076095Y-45918776D01*
X52824053Y-45814119D01*
X52551145Y-45813881D01*
X52298920Y-45918098D01*
X52105776Y-46110905D01*
X52088338Y-46152901D01*
X52012661Y-45969748D01*
X51821259Y-45778013D01*
X51619557Y-45694259D01*
X51624996Y-45688820D01*
X51683000Y-45548786D01*
X51683000Y-45295250D01*
X51587750Y-45200000D01*
X51054000Y-45200000D01*
X51054000Y-45758750D01*
X51065911Y-45770661D01*
X51049748Y-45777339D01*
X50952919Y-45874000D01*
X50927000Y-45874000D01*
X50927000Y-44926000D01*
X51054000Y-44926000D01*
X51054000Y-44946000D01*
X51587750Y-44946000D01*
X51683000Y-44850750D01*
X51683000Y-44850000D01*
X53948536Y-44850000D01*
X53948536Y-45650000D01*
X53975103Y-45791190D01*
X54058546Y-45920865D01*
X54185866Y-46007859D01*
X54337000Y-46038464D01*
X55137000Y-46038464D01*
X55278190Y-46011897D01*
X55407865Y-45928454D01*
X55473008Y-45833113D01*
X55616946Y-45892882D01*
X55887865Y-45893118D01*
X56138252Y-45789661D01*
X56329987Y-45598259D01*
X56341202Y-45571250D01*
X59367000Y-45571250D01*
X59367000Y-45676786D01*
X59425004Y-45816820D01*
X59532181Y-45923996D01*
X59672215Y-45982000D01*
X59975750Y-45982000D01*
X60071000Y-45886750D01*
X60071000Y-45476000D01*
X60325000Y-45476000D01*
X60325000Y-45886750D01*
X60420250Y-45982000D01*
X60723785Y-45982000D01*
X60863819Y-45923996D01*
X60970996Y-45816820D01*
X61029000Y-45676786D01*
X61029000Y-45571250D01*
X60933750Y-45476000D01*
X60325000Y-45476000D01*
X60071000Y-45476000D01*
X59462250Y-45476000D01*
X59367000Y-45571250D01*
X56341202Y-45571250D01*
X56433882Y-45348054D01*
X56434118Y-45077135D01*
X56412665Y-45025214D01*
X59367000Y-45025214D01*
X59367000Y-45130750D01*
X59462250Y-45226000D01*
X60071000Y-45226000D01*
X60071000Y-44815250D01*
X60325000Y-44815250D01*
X60325000Y-45226000D01*
X60933750Y-45226000D01*
X61029000Y-45130750D01*
X61029000Y-45025214D01*
X60970996Y-44885180D01*
X60863819Y-44778004D01*
X60723785Y-44720000D01*
X60420250Y-44720000D01*
X60325000Y-44815250D01*
X60071000Y-44815250D01*
X59975750Y-44720000D01*
X59672215Y-44720000D01*
X59532181Y-44778004D01*
X59425004Y-44885180D01*
X59367000Y-45025214D01*
X56412665Y-45025214D01*
X56330661Y-44826748D01*
X56139259Y-44635013D01*
X55889054Y-44531118D01*
X55618135Y-44530882D01*
X55433496Y-44607173D01*
X55415454Y-44579135D01*
X55288134Y-44492141D01*
X55137000Y-44461536D01*
X54337000Y-44461536D01*
X54195810Y-44488103D01*
X54066135Y-44571546D01*
X53979141Y-44698866D01*
X53948536Y-44850000D01*
X51683000Y-44850000D01*
X51683000Y-44597214D01*
X51624996Y-44457180D01*
X51517819Y-44350004D01*
X51458133Y-44325281D01*
X51572865Y-44251454D01*
X51659859Y-44124134D01*
X51690464Y-43973000D01*
X51690464Y-43176288D01*
X51820252Y-43122661D01*
X52011987Y-42931259D01*
X52115882Y-42681054D01*
X52116118Y-42410135D01*
X52012661Y-42159748D01*
X51821259Y-41968013D01*
X51571054Y-41864118D01*
X51300135Y-41863882D01*
X51049748Y-41967339D01*
X50927000Y-42089874D01*
X50927000Y-41370250D01*
X53356000Y-41370250D01*
X53356000Y-41673785D01*
X53414004Y-41813819D01*
X53521180Y-41920996D01*
X53661214Y-41979000D01*
X53766750Y-41979000D01*
X53862000Y-41883750D01*
X53862000Y-41275000D01*
X54112000Y-41275000D01*
X54112000Y-41883750D01*
X54207250Y-41979000D01*
X54312786Y-41979000D01*
X54452820Y-41920996D01*
X54559996Y-41813819D01*
X54618000Y-41673785D01*
X54618000Y-41370250D01*
X54522750Y-41275000D01*
X54112000Y-41275000D01*
X53862000Y-41275000D01*
X53451250Y-41275000D01*
X53356000Y-41370250D01*
X50927000Y-41370250D01*
X50927000Y-40461000D01*
X53435185Y-40461000D01*
X53414004Y-40482181D01*
X53414004Y-40482181D01*
G37*
X53414004Y-40482181D02*
X53356000Y-40622215D01*
X53356000Y-40925750D01*
X53451250Y-41021000D01*
X53862000Y-41021000D01*
X53862000Y-41001000D01*
X54112000Y-41001000D01*
X54112000Y-41021000D01*
X54522750Y-41021000D01*
X54618000Y-40925750D01*
X54618000Y-40622215D01*
X54559996Y-40482181D01*
X54538815Y-40461000D01*
X54937811Y-40461000D01*
X54879141Y-40546866D01*
X54848536Y-40698000D01*
X54848536Y-41598000D01*
X54875103Y-41739190D01*
X54958546Y-41868865D01*
X55006000Y-41901289D01*
X55006000Y-42861536D01*
X54337000Y-42861536D01*
X54195810Y-42888103D01*
X54066135Y-42971546D01*
X53979141Y-43098866D01*
X53948536Y-43250000D01*
X53948536Y-44050000D01*
X53975103Y-44191190D01*
X54058546Y-44320865D01*
X54185866Y-44407859D01*
X54337000Y-44438464D01*
X55137000Y-44438464D01*
X55278190Y-44411897D01*
X55407865Y-44328454D01*
X55494859Y-44201134D01*
X55516283Y-44095338D01*
X55521071Y-44094386D01*
X55677118Y-43990118D01*
X55827118Y-43840118D01*
X55931386Y-43684071D01*
X55953479Y-43573000D01*
X55968000Y-43500000D01*
X55968000Y-42535855D01*
X56100881Y-42535855D01*
X56205098Y-42788080D01*
X56397905Y-42981224D01*
X56649947Y-43085881D01*
X56922855Y-43086119D01*
X57175080Y-42981902D01*
X57368224Y-42789095D01*
X57472881Y-42537053D01*
X57473119Y-42264145D01*
X57368902Y-42011920D01*
X57176095Y-41818776D01*
X56924053Y-41714119D01*
X56651145Y-41713881D01*
X56398920Y-41818098D01*
X56205776Y-42010905D01*
X56101119Y-42262947D01*
X56100881Y-42535855D01*
X55968000Y-42535855D01*
X55968000Y-41902106D01*
X56007865Y-41876454D01*
X56094859Y-41749134D01*
X56125464Y-41598000D01*
X56125464Y-40698000D01*
X56098897Y-40556810D01*
X56037245Y-40461000D01*
X67489000Y-40461000D01*
X67489000Y-41910000D01*
X67523711Y-42084504D01*
X67622559Y-42232441D01*
X67770496Y-42331289D01*
X67818000Y-42340738D01*
X67818000Y-47718760D01*
X67794652Y-47734361D01*
X67598256Y-48028289D01*
X67529291Y-48375000D01*
X67598256Y-48721711D01*
X67725093Y-48911536D01*
X67605000Y-48911536D01*
X67463810Y-48938103D01*
X67364298Y-49002137D01*
X67315259Y-48953013D01*
X67065054Y-48849118D01*
X66794135Y-48848882D01*
X66543748Y-48952339D01*
X66352013Y-49143741D01*
X66248118Y-49393946D01*
X66248114Y-49398029D01*
X66178375Y-49328168D01*
X65928170Y-49224273D01*
X65657251Y-49224037D01*
X65406864Y-49327494D01*
X65310035Y-49424155D01*
X63377714Y-49424155D01*
X63193643Y-49460769D01*
X63134930Y-49500000D01*
X63037596Y-49565036D01*
X63033632Y-49569000D01*
X62515443Y-49569000D01*
X62476134Y-49542141D01*
X62325000Y-49511536D01*
X62131000Y-49511536D01*
X62131000Y-49422998D01*
X62075252Y-49422998D01*
X62131000Y-49367250D01*
X62131000Y-49299215D01*
X62072996Y-49159181D01*
X61965820Y-49052004D01*
X61825786Y-48994000D01*
X61757750Y-48994000D01*
X61702002Y-49049748D01*
X61702002Y-48994000D01*
X61613464Y-48994000D01*
X61613464Y-48800000D01*
X61586897Y-48658810D01*
X61556000Y-48610794D01*
X61556000Y-48488079D01*
X61651987Y-48392259D01*
X61755882Y-48142054D01*
X61756118Y-47871135D01*
X61683895Y-47696341D01*
X61740772Y-47639464D01*
X62224000Y-47639464D01*
X62365190Y-47612897D01*
X62494865Y-47529454D01*
X62547685Y-47452149D01*
X62592546Y-47521865D01*
X62719866Y-47608859D01*
X62871000Y-47639464D01*
X63621000Y-47639464D01*
X63762190Y-47612897D01*
X63891865Y-47529454D01*
X63978859Y-47402134D01*
X64009464Y-47251000D01*
X64009464Y-47073250D01*
X64014000Y-47073250D01*
X64014000Y-47326786D01*
X64072004Y-47466820D01*
X64179181Y-47573996D01*
X64319215Y-47632000D01*
X64547750Y-47632000D01*
X64643000Y-47536750D01*
X64643000Y-46978000D01*
X64897000Y-46978000D01*
X64897000Y-47536750D01*
X64992250Y-47632000D01*
X65220785Y-47632000D01*
X65360819Y-47573996D01*
X65467996Y-47466820D01*
X65468500Y-47465603D01*
X65469004Y-47466820D01*
X65576181Y-47573996D01*
X65716215Y-47632000D01*
X65944750Y-47632000D01*
X66040000Y-47536750D01*
X66040000Y-46978000D01*
X66294000Y-46978000D01*
X66294000Y-47536750D01*
X66389250Y-47632000D01*
X66617785Y-47632000D01*
X66757819Y-47573996D01*
X66864996Y-47466820D01*
X66923000Y-47326786D01*
X66923000Y-47073250D01*
X66827750Y-46978000D01*
X66294000Y-46978000D01*
X66040000Y-46978000D01*
X65506250Y-46978000D01*
X65468500Y-47015750D01*
X65430750Y-46978000D01*
X64897000Y-46978000D01*
X64643000Y-46978000D01*
X64109250Y-46978000D01*
X64014000Y-47073250D01*
X64009464Y-47073250D01*
X64009464Y-46451000D01*
X63982897Y-46309810D01*
X63899454Y-46180135D01*
X63782202Y-46100020D01*
X63891865Y-46029454D01*
X63978859Y-45902134D01*
X64007946Y-45758495D01*
X64033103Y-45892190D01*
X64116546Y-46021865D01*
X64236897Y-46104097D01*
X64179181Y-46128004D01*
X64072004Y-46235180D01*
X64014000Y-46375214D01*
X64014000Y-46628750D01*
X64109250Y-46724000D01*
X64643000Y-46724000D01*
X64643000Y-46704000D01*
X64897000Y-46704000D01*
X64897000Y-46724000D01*
X65430750Y-46724000D01*
X65468500Y-46686250D01*
X65506250Y-46724000D01*
X66040000Y-46724000D01*
X66040000Y-46704000D01*
X66294000Y-46704000D01*
X66294000Y-46724000D01*
X66827750Y-46724000D01*
X66923000Y-46628750D01*
X66923000Y-46375214D01*
X66864996Y-46235180D01*
X66757819Y-46128004D01*
X66698133Y-46103281D01*
X66812865Y-46029454D01*
X66899859Y-45902134D01*
X66930464Y-45751000D01*
X66930464Y-44951000D01*
X66903897Y-44809810D01*
X66820454Y-44680135D01*
X66770308Y-44645872D01*
X66847882Y-44459054D01*
X66848118Y-44188135D01*
X66744661Y-43937748D01*
X66553259Y-43746013D01*
X66303054Y-43642118D01*
X66032135Y-43641882D01*
X65781748Y-43745339D01*
X65590013Y-43936741D01*
X65486118Y-44186946D01*
X65485882Y-44457865D01*
X65563359Y-44645376D01*
X65521135Y-44672546D01*
X65468315Y-44749851D01*
X65423454Y-44680135D01*
X65373308Y-44645872D01*
X65450882Y-44459054D01*
X65451118Y-44188135D01*
X65347661Y-43937748D01*
X65156259Y-43746013D01*
X64906054Y-43642118D01*
X64635135Y-43641882D01*
X64384748Y-43745339D01*
X64193013Y-43936741D01*
X64089118Y-44186946D01*
X64088882Y-44457865D01*
X64166359Y-44645376D01*
X64124135Y-44672546D01*
X64037141Y-44799866D01*
X64008054Y-44943505D01*
X63982897Y-44809810D01*
X63899454Y-44680135D01*
X63849308Y-44645872D01*
X63926882Y-44459054D01*
X63927118Y-44188135D01*
X63823661Y-43937748D01*
X63632259Y-43746013D01*
X63382054Y-43642118D01*
X63111135Y-43641882D01*
X62860748Y-43745339D01*
X62669013Y-43936741D01*
X62565118Y-44186946D01*
X62564882Y-44457865D01*
X62642359Y-44645376D01*
X62600135Y-44672546D01*
X62547315Y-44749851D01*
X62502454Y-44680135D01*
X62452308Y-44645872D01*
X62529882Y-44459054D01*
X62530118Y-44188135D01*
X62426661Y-43937748D01*
X62235259Y-43746013D01*
X61985054Y-43642118D01*
X61714135Y-43641882D01*
X61463748Y-43745339D01*
X61272013Y-43936741D01*
X61168118Y-44186946D01*
X61167882Y-44457865D01*
X61245359Y-44645376D01*
X61203135Y-44672546D01*
X61116141Y-44799866D01*
X61085536Y-44951000D01*
X61085536Y-45751000D01*
X61112103Y-45892190D01*
X61195546Y-46021865D01*
X61312798Y-46101980D01*
X61203135Y-46172546D01*
X61116141Y-46299866D01*
X61085536Y-46451000D01*
X61085536Y-46934228D01*
X61036464Y-46983300D01*
X61036464Y-46601000D01*
X61009897Y-46459810D01*
X60926454Y-46330135D01*
X60799134Y-46243141D01*
X60648000Y-46212536D01*
X59748000Y-46212536D01*
X59606810Y-46239103D01*
X59477135Y-46322546D01*
X59390141Y-46449866D01*
X59359536Y-46601000D01*
X59359536Y-47101000D01*
X59386103Y-47242190D01*
X59469546Y-47371865D01*
X59596866Y-47458859D01*
X59717000Y-47483186D01*
X59717000Y-48286644D01*
X59633549Y-48411536D01*
X59425000Y-48411536D01*
X59283810Y-48438103D01*
X59154135Y-48521546D01*
X59067141Y-48648866D01*
X59036536Y-48800000D01*
X59036536Y-48986536D01*
X58900000Y-48986536D01*
X58758810Y-49013103D01*
X58629135Y-49096546D01*
X58542141Y-49223866D01*
X58511536Y-49375000D01*
X58511536Y-49511536D01*
X58325000Y-49511536D01*
X58213712Y-49532476D01*
X58162178Y-49480942D01*
X58234987Y-49408259D01*
X58338882Y-49158054D01*
X58339118Y-48887135D01*
X58235661Y-48636748D01*
X58044259Y-48445013D01*
X57794054Y-48341118D01*
X57523135Y-48340882D01*
X57272748Y-48444339D01*
X57081013Y-48635741D01*
X56977118Y-48885946D01*
X56976882Y-49156865D01*
X57080339Y-49407252D01*
X57177000Y-49504081D01*
X57177000Y-49657000D01*
X57199535Y-49770290D01*
X57213614Y-49841071D01*
X57317882Y-49997118D01*
X57710882Y-50390118D01*
X57866929Y-50494386D01*
X58051000Y-50531000D01*
X58134557Y-50531000D01*
X58163798Y-50550980D01*
X58054135Y-50621546D01*
X58051775Y-50625000D01*
X58039250Y-50625000D01*
X57944000Y-50720250D01*
X57944000Y-50775785D01*
X57955881Y-50804469D01*
X57936536Y-50900000D01*
X57936536Y-51069000D01*
X57718236Y-51069000D01*
X57577000Y-50927764D01*
X57577118Y-50792135D01*
X57473661Y-50541748D01*
X57282259Y-50350013D01*
X57032054Y-50246118D01*
X56761135Y-50245882D01*
X56510748Y-50349339D01*
X56319013Y-50540741D01*
X56215118Y-50790946D01*
X56214882Y-51061865D01*
X56318339Y-51312252D01*
X56509741Y-51503987D01*
X56759946Y-51607882D01*
X56892592Y-51607998D01*
X56796040Y-51704382D01*
X56692145Y-51954587D01*
X56691909Y-52225506D01*
X56795366Y-52475893D01*
X56986768Y-52667628D01*
X57236973Y-52771523D01*
X57507892Y-52771759D01*
X57758279Y-52668302D01*
X57866782Y-52559988D01*
X58686737Y-52540408D01*
X58748866Y-52582859D01*
X58900000Y-52613464D01*
X58931299Y-52613464D01*
X58685764Y-52859000D01*
X55600079Y-52859000D01*
X55504259Y-52763013D01*
X55254054Y-52659118D01*
X54983135Y-52658882D01*
X54732748Y-52762339D01*
X54541013Y-52953741D01*
X54437118Y-53203946D01*
X54436882Y-53474865D01*
X54540339Y-53725252D01*
X54731741Y-53916987D01*
X54981946Y-54020882D01*
X55198959Y-54021071D01*
X55198882Y-54109865D01*
X55302339Y-54360252D01*
X55493741Y-54551987D01*
X55743946Y-54655882D01*
X56014865Y-54656118D01*
X56265252Y-54552661D01*
X56362081Y-54456000D01*
X56549209Y-54456000D01*
X56398920Y-54518098D01*
X56205776Y-54710905D01*
X56101119Y-54962947D01*
X56100881Y-55235855D01*
X56205098Y-55488080D01*
X56397905Y-55681224D01*
X56649947Y-55785881D01*
X56922855Y-55786119D01*
X57175080Y-55681902D01*
X57368224Y-55489095D01*
X57472881Y-55237053D01*
X57473119Y-54964145D01*
X57368902Y-54711920D01*
X57176095Y-54518776D01*
X57024914Y-54456000D01*
X58438764Y-54456000D01*
X57025764Y-55869000D01*
X55510223Y-55869000D01*
X55498897Y-55808810D01*
X55415454Y-55679135D01*
X55288134Y-55592141D01*
X55137000Y-55561536D01*
X54337000Y-55561536D01*
X54195810Y-55588103D01*
X54066135Y-55671546D01*
X53979141Y-55798866D01*
X53948536Y-55950000D01*
X53948536Y-56750000D01*
X53975103Y-56891190D01*
X54058546Y-57020865D01*
X54185866Y-57107859D01*
X54337000Y-57138464D01*
X55137000Y-57138464D01*
X55278190Y-57111897D01*
X55407865Y-57028454D01*
X55494859Y-56901134D01*
X55509061Y-56831000D01*
X57225000Y-56831000D01*
X57409071Y-56794386D01*
X57565118Y-56690118D01*
X60594000Y-53661237D01*
X60594000Y-54419763D01*
X59603882Y-55409882D01*
X59499614Y-55565929D01*
X59498796Y-55570042D01*
X59402810Y-55588103D01*
X59273135Y-55671546D01*
X59186141Y-55798866D01*
X59155536Y-55950000D01*
X59155536Y-56750000D01*
X59182103Y-56891190D01*
X59265546Y-57020865D01*
X59392866Y-57107859D01*
X59544000Y-57138464D01*
X60344000Y-57138464D01*
X60485190Y-57111897D01*
X60614865Y-57028454D01*
X60701859Y-56901134D01*
X60732464Y-56750000D01*
X60732464Y-55950000D01*
X60705897Y-55808810D01*
X60650898Y-55723338D01*
X61308029Y-55066208D01*
X61307881Y-55235855D01*
X61412098Y-55488080D01*
X61604905Y-55681224D01*
X61856947Y-55785881D01*
X62129855Y-55786119D01*
X62382080Y-55681902D01*
X62575224Y-55489095D01*
X62679881Y-55237053D01*
X62680119Y-54964145D01*
X62575902Y-54711920D01*
X62383095Y-54518776D01*
X62131053Y-54414119D01*
X61858145Y-54413881D01*
X61605920Y-54518098D01*
X61556000Y-54567931D01*
X61556000Y-52990443D01*
X61582859Y-52951134D01*
X61613464Y-52800000D01*
X61613464Y-52613464D01*
X61750000Y-52613464D01*
X61891190Y-52586897D01*
X62020865Y-52503454D01*
X62107859Y-52376134D01*
X62138464Y-52225000D01*
X62138464Y-52088464D01*
X62325000Y-52088464D01*
X62466190Y-52061897D01*
X62581496Y-51987700D01*
X62605741Y-52011987D01*
X62855946Y-52115882D01*
X63126865Y-52116118D01*
X63377252Y-52012661D01*
X63474081Y-51916000D01*
X64066536Y-51916000D01*
X64066536Y-52060000D01*
X64093103Y-52201190D01*
X64176546Y-52330865D01*
X64303866Y-52417859D01*
X64455000Y-52448464D01*
X64905000Y-52448464D01*
X64924000Y-52444889D01*
X64924000Y-52514500D01*
X64960614Y-52698571D01*
X65064882Y-52854618D01*
X65220929Y-52958886D01*
X65405000Y-52995500D01*
X65589071Y-52958886D01*
X65649000Y-52918842D01*
X65649000Y-56265000D01*
X65671902Y-56380135D01*
X65685614Y-56449071D01*
X65789882Y-56605118D01*
X66674882Y-57490118D01*
X66826536Y-57591451D01*
X66826536Y-58100000D01*
X66853103Y-58241190D01*
X66936546Y-58370865D01*
X67063866Y-58457859D01*
X67215000Y-58488464D01*
X67818000Y-58488464D01*
X67818000Y-59259262D01*
X67770496Y-59268711D01*
X67622559Y-59367559D01*
X67523711Y-59515496D01*
X67489000Y-59690000D01*
X67489000Y-61139000D01*
X61243189Y-61139000D01*
X61301859Y-61053134D01*
X61332464Y-60902000D01*
X61332464Y-60002000D01*
X61305897Y-59860810D01*
X61222454Y-59731135D01*
X61175000Y-59698711D01*
X61175000Y-58100000D01*
X61138386Y-57915929D01*
X61034118Y-57759882D01*
X60884118Y-57609882D01*
X60728071Y-57505614D01*
X60723958Y-57504796D01*
X60705897Y-57408810D01*
X60622454Y-57279135D01*
X60495134Y-57192141D01*
X60344000Y-57161536D01*
X59544000Y-57161536D01*
X59402810Y-57188103D01*
X59273135Y-57271546D01*
X59186141Y-57398866D01*
X59155536Y-57550000D01*
X59155536Y-58350000D01*
X59182103Y-58491190D01*
X59265546Y-58620865D01*
X59392866Y-58707859D01*
X59544000Y-58738464D01*
X60213000Y-58738464D01*
X60213000Y-59697894D01*
X60173135Y-59723546D01*
X60086141Y-59850866D01*
X60055536Y-60002000D01*
X60055536Y-60902000D01*
X60082103Y-61043190D01*
X60143755Y-61139000D01*
X59745815Y-61139000D01*
X59766996Y-61117819D01*
X59825000Y-60977785D01*
X59825000Y-60674250D01*
X59729750Y-60579000D01*
X59319000Y-60579000D01*
X59319000Y-60599000D01*
X59069000Y-60599000D01*
X59069000Y-60579000D01*
X58658250Y-60579000D01*
X58563000Y-60674250D01*
X58563000Y-60977785D01*
X58621004Y-61117819D01*
X58642185Y-61139000D01*
X56036189Y-61139000D01*
X56094859Y-61053134D01*
X56125464Y-60902000D01*
X56125464Y-60002000D01*
X56111204Y-59926215D01*
X58563000Y-59926215D01*
X58563000Y-60229750D01*
X58658250Y-60325000D01*
X59069000Y-60325000D01*
X59069000Y-59716250D01*
X59319000Y-59716250D01*
X59319000Y-60325000D01*
X59729750Y-60325000D01*
X59825000Y-60229750D01*
X59825000Y-59926215D01*
X59766996Y-59786181D01*
X59659820Y-59679004D01*
X59519786Y-59621000D01*
X59414250Y-59621000D01*
X59319000Y-59716250D01*
X59069000Y-59716250D01*
X58973750Y-59621000D01*
X58868214Y-59621000D01*
X58728180Y-59679004D01*
X58621004Y-59786181D01*
X58563000Y-59926215D01*
X56111204Y-59926215D01*
X56098897Y-59860810D01*
X56015454Y-59731135D01*
X55968000Y-59698711D01*
X55968000Y-59335855D01*
X57207881Y-59335855D01*
X57312098Y-59588080D01*
X57504905Y-59781224D01*
X57756947Y-59885881D01*
X58029855Y-59886119D01*
X58282080Y-59781902D01*
X58475224Y-59589095D01*
X58579881Y-59337053D01*
X58580119Y-59064145D01*
X58475902Y-58811920D01*
X58283095Y-58618776D01*
X58031053Y-58514119D01*
X57758145Y-58513881D01*
X57505920Y-58618098D01*
X57312776Y-58810905D01*
X57208119Y-59062947D01*
X57207881Y-59335855D01*
X55968000Y-59335855D01*
X55968000Y-58100000D01*
X55931386Y-57915929D01*
X55827118Y-57759882D01*
X55677118Y-57609882D01*
X55521071Y-57505614D01*
X55516958Y-57504796D01*
X55498897Y-57408810D01*
X55415454Y-57279135D01*
X55288134Y-57192141D01*
X55137000Y-57161536D01*
X54337000Y-57161536D01*
X54195810Y-57188103D01*
X54066135Y-57271546D01*
X53979141Y-57398866D01*
X53948536Y-57550000D01*
X53948536Y-58350000D01*
X53975103Y-58491190D01*
X54058546Y-58620865D01*
X54185866Y-58707859D01*
X54337000Y-58738464D01*
X55006000Y-58738464D01*
X55006000Y-59697894D01*
X54966135Y-59723546D01*
X54879141Y-59850866D01*
X54848536Y-60002000D01*
X54848536Y-60902000D01*
X54875103Y-61043190D01*
X54936755Y-61139000D01*
X54538815Y-61139000D01*
X54559996Y-61117819D01*
X54618000Y-60977785D01*
X54618000Y-60674250D01*
X54522750Y-60579000D01*
X54112000Y-60579000D01*
X54112000Y-60599000D01*
X53862000Y-60599000D01*
X53862000Y-60579000D01*
X53451250Y-60579000D01*
X53356000Y-60674250D01*
X53356000Y-60977785D01*
X53414004Y-61117819D01*
X53435185Y-61139000D01*
X50927000Y-61139000D01*
X50927000Y-59926215D01*
X53356000Y-59926215D01*
X53356000Y-60229750D01*
X53451250Y-60325000D01*
X53862000Y-60325000D01*
X53862000Y-59716250D01*
X54112000Y-59716250D01*
X54112000Y-60325000D01*
X54522750Y-60325000D01*
X54618000Y-60229750D01*
X54618000Y-59926215D01*
X54559996Y-59786181D01*
X54452820Y-59679004D01*
X54312786Y-59621000D01*
X54207250Y-59621000D01*
X54112000Y-59716250D01*
X53862000Y-59716250D01*
X53766750Y-59621000D01*
X53661214Y-59621000D01*
X53521180Y-59679004D01*
X53414004Y-59786181D01*
X53356000Y-59926215D01*
X50927000Y-59926215D01*
X50927000Y-59335855D01*
X52000881Y-59335855D01*
X52105098Y-59588080D01*
X52297905Y-59781224D01*
X52549947Y-59885881D01*
X52822855Y-59886119D01*
X53075080Y-59781902D01*
X53268224Y-59589095D01*
X53372881Y-59337053D01*
X53373119Y-59064145D01*
X53268902Y-58811920D01*
X53076095Y-58618776D01*
X52824053Y-58514119D01*
X52551145Y-58513881D01*
X52298920Y-58618098D01*
X52105776Y-58810905D01*
X52001119Y-59062947D01*
X52000881Y-59335855D01*
X50927000Y-59335855D01*
X50927000Y-56996000D01*
X50952921Y-56996000D01*
X51048741Y-57091987D01*
X51298946Y-57195882D01*
X51569865Y-57196118D01*
X51820252Y-57092661D01*
X52011987Y-56901259D01*
X52115882Y-56651054D01*
X52116118Y-56380135D01*
X52012661Y-56129748D01*
X51821259Y-55938013D01*
X51681515Y-55879986D01*
X51820252Y-55822661D01*
X52011987Y-55631259D01*
X52115882Y-55381054D01*
X52116118Y-55110135D01*
X52012661Y-54859748D01*
X51821259Y-54668013D01*
X51681515Y-54609986D01*
X51820252Y-54552661D01*
X52011987Y-54361259D01*
X52115882Y-54111054D01*
X52116118Y-53840135D01*
X52012661Y-53589748D01*
X51821259Y-53398013D01*
X51619557Y-53314259D01*
X51624996Y-53308820D01*
X51683000Y-53168786D01*
X51683000Y-52915250D01*
X51587750Y-52820000D01*
X51054000Y-52820000D01*
X51054000Y-53378750D01*
X51065911Y-53390661D01*
X51049748Y-53397339D01*
X50952919Y-53494000D01*
X50927000Y-53494000D01*
X50927000Y-52546000D01*
X51054000Y-52546000D01*
X51054000Y-52566000D01*
X51587750Y-52566000D01*
X51683000Y-52470750D01*
X51683000Y-52217214D01*
X51624996Y-52077180D01*
X51517819Y-51970004D01*
X51458133Y-51945281D01*
X51572865Y-51871454D01*
X51659859Y-51744134D01*
X51690464Y-51593000D01*
X51690464Y-50793000D01*
X51668865Y-50678212D01*
X51820252Y-50615661D01*
X52011987Y-50424259D01*
X52115882Y-50174054D01*
X52116118Y-49903135D01*
X52012661Y-49652748D01*
X51826580Y-49466344D01*
X52011987Y-49281259D01*
X52115882Y-49031054D01*
X52116118Y-48760135D01*
X52012661Y-48509748D01*
X51821259Y-48318013D01*
X51681515Y-48259986D01*
X51820252Y-48202661D01*
X52011987Y-48011259D01*
X52115882Y-47761054D01*
X52116118Y-47490135D01*
X52012661Y-47239748D01*
X51821259Y-47048013D01*
X51681515Y-46989986D01*
X51820252Y-46932661D01*
X52011987Y-46741259D01*
X52028250Y-46702093D01*
X52105098Y-46888080D01*
X52297905Y-47081224D01*
X52549947Y-47185881D01*
X52822855Y-47186119D01*
X53075080Y-47081902D01*
X53268224Y-46889095D01*
X53372881Y-46637053D01*
X53373119Y-46364145D01*
X53268902Y-46111920D01*
X53076095Y-45918776D01*
X52824053Y-45814119D01*
X52551145Y-45813881D01*
X52298920Y-45918098D01*
X52105776Y-46110905D01*
X52088338Y-46152901D01*
X52012661Y-45969748D01*
X51821259Y-45778013D01*
X51619557Y-45694259D01*
X51624996Y-45688820D01*
X51683000Y-45548786D01*
X51683000Y-45295250D01*
X51587750Y-45200000D01*
X51054000Y-45200000D01*
X51054000Y-45758750D01*
X51065911Y-45770661D01*
X51049748Y-45777339D01*
X50952919Y-45874000D01*
X50927000Y-45874000D01*
X50927000Y-44926000D01*
X51054000Y-44926000D01*
X51054000Y-44946000D01*
X51587750Y-44946000D01*
X51683000Y-44850750D01*
X51683000Y-44850000D01*
X53948536Y-44850000D01*
X53948536Y-45650000D01*
X53975103Y-45791190D01*
X54058546Y-45920865D01*
X54185866Y-46007859D01*
X54337000Y-46038464D01*
X55137000Y-46038464D01*
X55278190Y-46011897D01*
X55407865Y-45928454D01*
X55473008Y-45833113D01*
X55616946Y-45892882D01*
X55887865Y-45893118D01*
X56138252Y-45789661D01*
X56329987Y-45598259D01*
X56341202Y-45571250D01*
X59367000Y-45571250D01*
X59367000Y-45676786D01*
X59425004Y-45816820D01*
X59532181Y-45923996D01*
X59672215Y-45982000D01*
X59975750Y-45982000D01*
X60071000Y-45886750D01*
X60071000Y-45476000D01*
X60325000Y-45476000D01*
X60325000Y-45886750D01*
X60420250Y-45982000D01*
X60723785Y-45982000D01*
X60863819Y-45923996D01*
X60970996Y-45816820D01*
X61029000Y-45676786D01*
X61029000Y-45571250D01*
X60933750Y-45476000D01*
X60325000Y-45476000D01*
X60071000Y-45476000D01*
X59462250Y-45476000D01*
X59367000Y-45571250D01*
X56341202Y-45571250D01*
X56433882Y-45348054D01*
X56434118Y-45077135D01*
X56412665Y-45025214D01*
X59367000Y-45025214D01*
X59367000Y-45130750D01*
X59462250Y-45226000D01*
X60071000Y-45226000D01*
X60071000Y-44815250D01*
X60325000Y-44815250D01*
X60325000Y-45226000D01*
X60933750Y-45226000D01*
X61029000Y-45130750D01*
X61029000Y-45025214D01*
X60970996Y-44885180D01*
X60863819Y-44778004D01*
X60723785Y-44720000D01*
X60420250Y-44720000D01*
X60325000Y-44815250D01*
X60071000Y-44815250D01*
X59975750Y-44720000D01*
X59672215Y-44720000D01*
X59532181Y-44778004D01*
X59425004Y-44885180D01*
X59367000Y-45025214D01*
X56412665Y-45025214D01*
X56330661Y-44826748D01*
X56139259Y-44635013D01*
X55889054Y-44531118D01*
X55618135Y-44530882D01*
X55433496Y-44607173D01*
X55415454Y-44579135D01*
X55288134Y-44492141D01*
X55137000Y-44461536D01*
X54337000Y-44461536D01*
X54195810Y-44488103D01*
X54066135Y-44571546D01*
X53979141Y-44698866D01*
X53948536Y-44850000D01*
X51683000Y-44850000D01*
X51683000Y-44597214D01*
X51624996Y-44457180D01*
X51517819Y-44350004D01*
X51458133Y-44325281D01*
X51572865Y-44251454D01*
X51659859Y-44124134D01*
X51690464Y-43973000D01*
X51690464Y-43176288D01*
X51820252Y-43122661D01*
X52011987Y-42931259D01*
X52115882Y-42681054D01*
X52116118Y-42410135D01*
X52012661Y-42159748D01*
X51821259Y-41968013D01*
X51571054Y-41864118D01*
X51300135Y-41863882D01*
X51049748Y-41967339D01*
X50927000Y-42089874D01*
X50927000Y-41370250D01*
X53356000Y-41370250D01*
X53356000Y-41673785D01*
X53414004Y-41813819D01*
X53521180Y-41920996D01*
X53661214Y-41979000D01*
X53766750Y-41979000D01*
X53862000Y-41883750D01*
X53862000Y-41275000D01*
X54112000Y-41275000D01*
X54112000Y-41883750D01*
X54207250Y-41979000D01*
X54312786Y-41979000D01*
X54452820Y-41920996D01*
X54559996Y-41813819D01*
X54618000Y-41673785D01*
X54618000Y-41370250D01*
X54522750Y-41275000D01*
X54112000Y-41275000D01*
X53862000Y-41275000D01*
X53451250Y-41275000D01*
X53356000Y-41370250D01*
X50927000Y-41370250D01*
X50927000Y-40461000D01*
X53435185Y-40461000D01*
X53414004Y-40482181D01*
G36*
X41783000Y-41649000D02*
X41751250Y-41649000D01*
X41656000Y-41744250D01*
X41656000Y-42303000D01*
X41676000Y-42303000D01*
X41676000Y-42557000D01*
X41656000Y-42557000D01*
X41656000Y-42577000D01*
X41402000Y-42577000D01*
X41402000Y-42557000D01*
X40868250Y-42557000D01*
X40773000Y-42652250D01*
X40773000Y-42905786D01*
X40831004Y-43045820D01*
X40938181Y-43152996D01*
X40997867Y-43177719D01*
X40883135Y-43251546D01*
X40826305Y-43334720D01*
X40649054Y-43261118D01*
X40512235Y-43260999D01*
X40335464Y-43084228D01*
X40335464Y-42791000D01*
X40308897Y-42649810D01*
X40225454Y-42520135D01*
X40098134Y-42433141D01*
X39947000Y-42402536D01*
X39047000Y-42402536D01*
X38905810Y-42429103D01*
X38776135Y-42512546D01*
X38689141Y-42639866D01*
X38658536Y-42791000D01*
X38658536Y-43291000D01*
X38685103Y-43432190D01*
X38768546Y-43561865D01*
X38895866Y-43648859D01*
X39047000Y-43679464D01*
X39570228Y-43679464D01*
X39832000Y-43941237D01*
X39831882Y-44076865D01*
X39935339Y-44327252D01*
X40126741Y-44518987D01*
X40376946Y-44622882D01*
X40647865Y-44623118D01*
X40839037Y-44544128D01*
X40875546Y-44600865D01*
X41002866Y-44687859D01*
X41154000Y-44718464D01*
X41612228Y-44718464D01*
X41783000Y-44889236D01*
X41783000Y-45674110D01*
X41521135Y-45673882D01*
X41270748Y-45777339D01*
X41079013Y-45968741D01*
X40975118Y-46218946D01*
X40974882Y-46489865D01*
X41078339Y-46740252D01*
X41269741Y-46931987D01*
X41409485Y-46990014D01*
X41270748Y-47047339D01*
X41079013Y-47238741D01*
X40975118Y-47488946D01*
X40974882Y-47759865D01*
X41078339Y-48010252D01*
X41269741Y-48201987D01*
X41519946Y-48305882D01*
X41783000Y-48306111D01*
X41783000Y-50728829D01*
X41538054Y-50627118D01*
X41267135Y-50626882D01*
X41016748Y-50730339D01*
X40825013Y-50921741D01*
X40721118Y-51171946D01*
X40720961Y-51351967D01*
X40703614Y-51377929D01*
X40667000Y-51562000D01*
X40667000Y-51952261D01*
X40582810Y-51968103D01*
X40453135Y-52051546D01*
X40370903Y-52171897D01*
X40346996Y-52114181D01*
X40239820Y-52007004D01*
X40099786Y-51949000D01*
X39846250Y-51949000D01*
X39751000Y-52044250D01*
X39751000Y-52578000D01*
X39771000Y-52578000D01*
X39771000Y-52832000D01*
X39751000Y-52832000D01*
X39751000Y-53365750D01*
X39846250Y-53461000D01*
X40099786Y-53461000D01*
X40239820Y-53402996D01*
X40346996Y-53295819D01*
X40371719Y-53236133D01*
X40445546Y-53350865D01*
X40572866Y-53437859D01*
X40724000Y-53468464D01*
X41524000Y-53468464D01*
X41665190Y-53441897D01*
X41783000Y-53366089D01*
X41783000Y-53494000D01*
X41402000Y-53494000D01*
X41217929Y-53530614D01*
X41061881Y-53634882D01*
X41021763Y-53675000D01*
X40886135Y-53674882D01*
X40635748Y-53778339D01*
X40444013Y-53969741D01*
X40340118Y-54219946D01*
X40339882Y-54490865D01*
X40443339Y-54741252D01*
X40634741Y-54932987D01*
X40837828Y-55017317D01*
X40762748Y-55048339D01*
X40571013Y-55239741D01*
X40467118Y-55489946D01*
X40466882Y-55760865D01*
X40570339Y-56011252D01*
X40761741Y-56202987D01*
X41011946Y-56306882D01*
X41282865Y-56307118D01*
X41533252Y-56203661D01*
X41724987Y-56012259D01*
X41783000Y-55872549D01*
X41783000Y-61139000D01*
X34111000Y-61139000D01*
X34111000Y-59690000D01*
X34076289Y-59515496D01*
X33977441Y-59367559D01*
X33829504Y-59268711D01*
X33655000Y-59234000D01*
X29031000Y-59234000D01*
X29031000Y-57372250D01*
X35218000Y-57372250D01*
X35218000Y-58075785D01*
X35276004Y-58215819D01*
X35383180Y-58322996D01*
X35523214Y-58381000D01*
X36226750Y-58381000D01*
X36322000Y-58285750D01*
X36322000Y-57277000D01*
X36576000Y-57277000D01*
X36576000Y-58285750D01*
X36671250Y-58381000D01*
X37374786Y-58381000D01*
X37514820Y-58322996D01*
X37621996Y-58215819D01*
X37680000Y-58075785D01*
X37680000Y-57372250D01*
X37584750Y-57277000D01*
X36576000Y-57277000D01*
X36322000Y-57277000D01*
X35313250Y-57277000D01*
X35218000Y-57372250D01*
X29031000Y-57372250D01*
X29031000Y-56224215D01*
X35218000Y-56224215D01*
X35218000Y-56927750D01*
X35313250Y-57023000D01*
X36322000Y-57023000D01*
X36322000Y-56014250D01*
X36576000Y-56014250D01*
X36576000Y-57023000D01*
X37584750Y-57023000D01*
X37680000Y-56927750D01*
X37680000Y-56342250D01*
X38158000Y-56342250D01*
X38158000Y-56447786D01*
X38216004Y-56587820D01*
X38323181Y-56694996D01*
X38463215Y-56753000D01*
X38766750Y-56753000D01*
X38862000Y-56657750D01*
X38862000Y-56247000D01*
X39116000Y-56247000D01*
X39116000Y-56657750D01*
X39211250Y-56753000D01*
X39514785Y-56753000D01*
X39654819Y-56694996D01*
X39761996Y-56587820D01*
X39820000Y-56447786D01*
X39820000Y-56342250D01*
X39724750Y-56247000D01*
X39116000Y-56247000D01*
X38862000Y-56247000D01*
X38253250Y-56247000D01*
X38158000Y-56342250D01*
X37680000Y-56342250D01*
X37680000Y-56224215D01*
X37621996Y-56084181D01*
X37514820Y-55977004D01*
X37374786Y-55919000D01*
X36671250Y-55919000D01*
X36576000Y-56014250D01*
X36322000Y-56014250D01*
X36226750Y-55919000D01*
X35523214Y-55919000D01*
X35383180Y-55977004D01*
X35276004Y-56084181D01*
X35218000Y-56224215D01*
X29031000Y-56224215D01*
X29031000Y-44450000D01*
X35193883Y-44450000D01*
X35287587Y-44921083D01*
X35554435Y-45320448D01*
X35953800Y-45587296D01*
X36424883Y-45681000D01*
X36473117Y-45681000D01*
X36944200Y-45587296D01*
X37343565Y-45320448D01*
X37542927Y-45022082D01*
X39614000Y-47093156D01*
X39614000Y-48616981D01*
X39599135Y-48626546D01*
X39569863Y-48669387D01*
X39495000Y-48744250D01*
X39495000Y-48838512D01*
X39481536Y-48905000D01*
X39481536Y-49049962D01*
X39404180Y-49082004D01*
X39297004Y-49189181D01*
X39245000Y-49314730D01*
X39245000Y-49221488D01*
X39258464Y-49155000D01*
X39258464Y-48905000D01*
X39245000Y-48833446D01*
X39245000Y-48744250D01*
X39172944Y-48672194D01*
X39148454Y-48634135D01*
X39021134Y-48547141D01*
X38870000Y-48516536D01*
X38655773Y-48516536D01*
X37639117Y-47499881D01*
X37606370Y-47467134D01*
X37610413Y-47461083D01*
X37704117Y-46990000D01*
X37610413Y-46518917D01*
X37343565Y-46119552D01*
X36944200Y-45852704D01*
X36473117Y-45759000D01*
X36424883Y-45759000D01*
X35953800Y-45852704D01*
X35554435Y-46119552D01*
X35287587Y-46518917D01*
X35193883Y-46990000D01*
X35287587Y-47461083D01*
X35554435Y-47860448D01*
X35953800Y-48127296D01*
X36424883Y-48221000D01*
X36473117Y-48221000D01*
X36912388Y-48133624D01*
X36958881Y-48180117D01*
X37827763Y-49049000D01*
X37603787Y-49049000D01*
X37343565Y-48659552D01*
X36944200Y-48392704D01*
X36473117Y-48299000D01*
X36424883Y-48299000D01*
X35953800Y-48392704D01*
X35554435Y-48659552D01*
X35287587Y-49058917D01*
X35193883Y-49530000D01*
X35287587Y-50001083D01*
X35554435Y-50400448D01*
X35953800Y-50667296D01*
X36424883Y-50761000D01*
X36473117Y-50761000D01*
X36944200Y-50667296D01*
X37343565Y-50400448D01*
X37603787Y-50011000D01*
X37827763Y-50011000D01*
X36912387Y-50926376D01*
X36473117Y-50839000D01*
X36424883Y-50839000D01*
X35953800Y-50932704D01*
X35554435Y-51199552D01*
X35287587Y-51598917D01*
X35193883Y-52070000D01*
X35287587Y-52541083D01*
X35554435Y-52940448D01*
X35953800Y-53207296D01*
X36424883Y-53301000D01*
X36473117Y-53301000D01*
X36944200Y-53207296D01*
X37343565Y-52940448D01*
X37610413Y-52541083D01*
X37704117Y-52070000D01*
X37610413Y-51598917D01*
X37606370Y-51592866D01*
X38655773Y-50543464D01*
X38870000Y-50543464D01*
X39011190Y-50516897D01*
X39140865Y-50433454D01*
X39170137Y-50390613D01*
X39242998Y-50317752D01*
X39242998Y-50411000D01*
X39358764Y-50411000D01*
X38219239Y-51550525D01*
X38140882Y-51602882D01*
X38036614Y-51758929D01*
X38000000Y-51943000D01*
X38000000Y-53664000D01*
X38022878Y-53779013D01*
X38036614Y-53848071D01*
X38140882Y-54004118D01*
X38252781Y-54116017D01*
X38235711Y-54141000D01*
X37610827Y-54141000D01*
X37610413Y-54138917D01*
X37343565Y-53739552D01*
X36944200Y-53472704D01*
X36473117Y-53379000D01*
X36424883Y-53379000D01*
X35953800Y-53472704D01*
X35554435Y-53739552D01*
X35287587Y-54138917D01*
X35193883Y-54610000D01*
X35287587Y-55081083D01*
X35554435Y-55480448D01*
X35953800Y-55747296D01*
X36424883Y-55841000D01*
X36473117Y-55841000D01*
X36698271Y-55796214D01*
X38158000Y-55796214D01*
X38158000Y-55901750D01*
X38253250Y-55997000D01*
X38862000Y-55997000D01*
X38862000Y-55586250D01*
X39116000Y-55586250D01*
X39116000Y-55997000D01*
X39724750Y-55997000D01*
X39820000Y-55901750D01*
X39820000Y-55796214D01*
X39761996Y-55656180D01*
X39654819Y-55549004D01*
X39514785Y-55491000D01*
X39211250Y-55491000D01*
X39116000Y-55586250D01*
X38862000Y-55586250D01*
X38766750Y-55491000D01*
X38463215Y-55491000D01*
X38323181Y-55549004D01*
X38216004Y-55656180D01*
X38158000Y-55796214D01*
X36698271Y-55796214D01*
X36944200Y-55747296D01*
X37343565Y-55480448D01*
X37595768Y-55103000D01*
X38234894Y-55103000D01*
X38260546Y-55142865D01*
X38387866Y-55229859D01*
X38539000Y-55260464D01*
X39439000Y-55260464D01*
X39580190Y-55233897D01*
X39709865Y-55150454D01*
X39796859Y-55023134D01*
X39827464Y-54872000D01*
X39827464Y-54372000D01*
X39800897Y-54230810D01*
X39717454Y-54101135D01*
X39590134Y-54014141D01*
X39439000Y-53983536D01*
X39430451Y-53983536D01*
X39421233Y-53969741D01*
X39329118Y-53831881D01*
X38962000Y-53464764D01*
X38962000Y-53356816D01*
X39008180Y-53402996D01*
X39148214Y-53461000D01*
X39401750Y-53461000D01*
X39497000Y-53365750D01*
X39497000Y-52832000D01*
X39477000Y-52832000D01*
X39477000Y-52578000D01*
X39497000Y-52578000D01*
X39497000Y-52044250D01*
X39401750Y-51949000D01*
X39181236Y-51949000D01*
X40435118Y-50695118D01*
X40496311Y-50603537D01*
X40507741Y-50614987D01*
X40757946Y-50718882D01*
X41028865Y-50719118D01*
X41279252Y-50615661D01*
X41470987Y-50424259D01*
X41574882Y-50174054D01*
X41575118Y-49903135D01*
X41471661Y-49652748D01*
X41280259Y-49461013D01*
X41030054Y-49357118D01*
X40759135Y-49356882D01*
X40686255Y-49386995D01*
X40701000Y-49372250D01*
X40701000Y-49329215D01*
X40682318Y-49284113D01*
X40708464Y-49155000D01*
X40708464Y-48905000D01*
X40681897Y-48763810D01*
X40598454Y-48634135D01*
X40576000Y-48618793D01*
X40576000Y-46893919D01*
X40539386Y-46709848D01*
X40499318Y-46649882D01*
X40435118Y-46553800D01*
X37991199Y-44109882D01*
X37835152Y-44005614D01*
X37651081Y-43969000D01*
X37603787Y-43969000D01*
X37343565Y-43579552D01*
X36944200Y-43312704D01*
X36473117Y-43219000D01*
X36424883Y-43219000D01*
X35953800Y-43312704D01*
X35554435Y-43579552D01*
X35287587Y-43978917D01*
X35193883Y-44450000D01*
X29031000Y-44450000D01*
X29031000Y-42366000D01*
X33655000Y-42366000D01*
X33829504Y-42331289D01*
X33977441Y-42232441D01*
X34076289Y-42084504D01*
X34111000Y-41910000D01*
X34111000Y-41663865D01*
X35196382Y-41663865D01*
X35299839Y-41914252D01*
X35491241Y-42105987D01*
X35741446Y-42209882D01*
X36012365Y-42210118D01*
X36262752Y-42106661D01*
X36347560Y-42022000D01*
X38742894Y-42022000D01*
X38768546Y-42061865D01*
X38895866Y-42148859D01*
X39047000Y-42179464D01*
X39947000Y-42179464D01*
X40088190Y-42152897D01*
X40217865Y-42069454D01*
X40296605Y-41954214D01*
X40773000Y-41954214D01*
X40773000Y-42207750D01*
X40868250Y-42303000D01*
X41402000Y-42303000D01*
X41402000Y-41744250D01*
X41306750Y-41649000D01*
X41078215Y-41649000D01*
X40938181Y-41707004D01*
X40831004Y-41814180D01*
X40773000Y-41954214D01*
X40296605Y-41954214D01*
X40304859Y-41942134D01*
X40335464Y-41791000D01*
X40335464Y-41291000D01*
X40308897Y-41149810D01*
X40225454Y-41020135D01*
X40098134Y-40933141D01*
X39947000Y-40902536D01*
X39047000Y-40902536D01*
X38905810Y-40929103D01*
X38776135Y-41012546D01*
X38743711Y-41060000D01*
X36371558Y-41060000D01*
X36263759Y-40952013D01*
X36013554Y-40848118D01*
X35742635Y-40847882D01*
X35492248Y-40951339D01*
X35300513Y-41142741D01*
X35196618Y-41392946D01*
X35196382Y-41663865D01*
X34111000Y-41663865D01*
X34111000Y-40461000D01*
X41783000Y-40461000D01*
X41783000Y-41649000D01*
X41783000Y-41649000D01*
G37*
X41783000Y-41649000D02*
X41751250Y-41649000D01*
X41656000Y-41744250D01*
X41656000Y-42303000D01*
X41676000Y-42303000D01*
X41676000Y-42557000D01*
X41656000Y-42557000D01*
X41656000Y-42577000D01*
X41402000Y-42577000D01*
X41402000Y-42557000D01*
X40868250Y-42557000D01*
X40773000Y-42652250D01*
X40773000Y-42905786D01*
X40831004Y-43045820D01*
X40938181Y-43152996D01*
X40997867Y-43177719D01*
X40883135Y-43251546D01*
X40826305Y-43334720D01*
X40649054Y-43261118D01*
X40512235Y-43260999D01*
X40335464Y-43084228D01*
X40335464Y-42791000D01*
X40308897Y-42649810D01*
X40225454Y-42520135D01*
X40098134Y-42433141D01*
X39947000Y-42402536D01*
X39047000Y-42402536D01*
X38905810Y-42429103D01*
X38776135Y-42512546D01*
X38689141Y-42639866D01*
X38658536Y-42791000D01*
X38658536Y-43291000D01*
X38685103Y-43432190D01*
X38768546Y-43561865D01*
X38895866Y-43648859D01*
X39047000Y-43679464D01*
X39570228Y-43679464D01*
X39832000Y-43941237D01*
X39831882Y-44076865D01*
X39935339Y-44327252D01*
X40126741Y-44518987D01*
X40376946Y-44622882D01*
X40647865Y-44623118D01*
X40839037Y-44544128D01*
X40875546Y-44600865D01*
X41002866Y-44687859D01*
X41154000Y-44718464D01*
X41612228Y-44718464D01*
X41783000Y-44889236D01*
X41783000Y-45674110D01*
X41521135Y-45673882D01*
X41270748Y-45777339D01*
X41079013Y-45968741D01*
X40975118Y-46218946D01*
X40974882Y-46489865D01*
X41078339Y-46740252D01*
X41269741Y-46931987D01*
X41409485Y-46990014D01*
X41270748Y-47047339D01*
X41079013Y-47238741D01*
X40975118Y-47488946D01*
X40974882Y-47759865D01*
X41078339Y-48010252D01*
X41269741Y-48201987D01*
X41519946Y-48305882D01*
X41783000Y-48306111D01*
X41783000Y-50728829D01*
X41538054Y-50627118D01*
X41267135Y-50626882D01*
X41016748Y-50730339D01*
X40825013Y-50921741D01*
X40721118Y-51171946D01*
X40720961Y-51351967D01*
X40703614Y-51377929D01*
X40667000Y-51562000D01*
X40667000Y-51952261D01*
X40582810Y-51968103D01*
X40453135Y-52051546D01*
X40370903Y-52171897D01*
X40346996Y-52114181D01*
X40239820Y-52007004D01*
X40099786Y-51949000D01*
X39846250Y-51949000D01*
X39751000Y-52044250D01*
X39751000Y-52578000D01*
X39771000Y-52578000D01*
X39771000Y-52832000D01*
X39751000Y-52832000D01*
X39751000Y-53365750D01*
X39846250Y-53461000D01*
X40099786Y-53461000D01*
X40239820Y-53402996D01*
X40346996Y-53295819D01*
X40371719Y-53236133D01*
X40445546Y-53350865D01*
X40572866Y-53437859D01*
X40724000Y-53468464D01*
X41524000Y-53468464D01*
X41665190Y-53441897D01*
X41783000Y-53366089D01*
X41783000Y-53494000D01*
X41402000Y-53494000D01*
X41217929Y-53530614D01*
X41061881Y-53634882D01*
X41021763Y-53675000D01*
X40886135Y-53674882D01*
X40635748Y-53778339D01*
X40444013Y-53969741D01*
X40340118Y-54219946D01*
X40339882Y-54490865D01*
X40443339Y-54741252D01*
X40634741Y-54932987D01*
X40837828Y-55017317D01*
X40762748Y-55048339D01*
X40571013Y-55239741D01*
X40467118Y-55489946D01*
X40466882Y-55760865D01*
X40570339Y-56011252D01*
X40761741Y-56202987D01*
X41011946Y-56306882D01*
X41282865Y-56307118D01*
X41533252Y-56203661D01*
X41724987Y-56012259D01*
X41783000Y-55872549D01*
X41783000Y-61139000D01*
X34111000Y-61139000D01*
X34111000Y-59690000D01*
X34076289Y-59515496D01*
X33977441Y-59367559D01*
X33829504Y-59268711D01*
X33655000Y-59234000D01*
X29031000Y-59234000D01*
X29031000Y-57372250D01*
X35218000Y-57372250D01*
X35218000Y-58075785D01*
X35276004Y-58215819D01*
X35383180Y-58322996D01*
X35523214Y-58381000D01*
X36226750Y-58381000D01*
X36322000Y-58285750D01*
X36322000Y-57277000D01*
X36576000Y-57277000D01*
X36576000Y-58285750D01*
X36671250Y-58381000D01*
X37374786Y-58381000D01*
X37514820Y-58322996D01*
X37621996Y-58215819D01*
X37680000Y-58075785D01*
X37680000Y-57372250D01*
X37584750Y-57277000D01*
X36576000Y-57277000D01*
X36322000Y-57277000D01*
X35313250Y-57277000D01*
X35218000Y-57372250D01*
X29031000Y-57372250D01*
X29031000Y-56224215D01*
X35218000Y-56224215D01*
X35218000Y-56927750D01*
X35313250Y-57023000D01*
X36322000Y-57023000D01*
X36322000Y-56014250D01*
X36576000Y-56014250D01*
X36576000Y-57023000D01*
X37584750Y-57023000D01*
X37680000Y-56927750D01*
X37680000Y-56342250D01*
X38158000Y-56342250D01*
X38158000Y-56447786D01*
X38216004Y-56587820D01*
X38323181Y-56694996D01*
X38463215Y-56753000D01*
X38766750Y-56753000D01*
X38862000Y-56657750D01*
X38862000Y-56247000D01*
X39116000Y-56247000D01*
X39116000Y-56657750D01*
X39211250Y-56753000D01*
X39514785Y-56753000D01*
X39654819Y-56694996D01*
X39761996Y-56587820D01*
X39820000Y-56447786D01*
X39820000Y-56342250D01*
X39724750Y-56247000D01*
X39116000Y-56247000D01*
X38862000Y-56247000D01*
X38253250Y-56247000D01*
X38158000Y-56342250D01*
X37680000Y-56342250D01*
X37680000Y-56224215D01*
X37621996Y-56084181D01*
X37514820Y-55977004D01*
X37374786Y-55919000D01*
X36671250Y-55919000D01*
X36576000Y-56014250D01*
X36322000Y-56014250D01*
X36226750Y-55919000D01*
X35523214Y-55919000D01*
X35383180Y-55977004D01*
X35276004Y-56084181D01*
X35218000Y-56224215D01*
X29031000Y-56224215D01*
X29031000Y-44450000D01*
X35193883Y-44450000D01*
X35287587Y-44921083D01*
X35554435Y-45320448D01*
X35953800Y-45587296D01*
X36424883Y-45681000D01*
X36473117Y-45681000D01*
X36944200Y-45587296D01*
X37343565Y-45320448D01*
X37542927Y-45022082D01*
X39614000Y-47093156D01*
X39614000Y-48616981D01*
X39599135Y-48626546D01*
X39569863Y-48669387D01*
X39495000Y-48744250D01*
X39495000Y-48838512D01*
X39481536Y-48905000D01*
X39481536Y-49049962D01*
X39404180Y-49082004D01*
X39297004Y-49189181D01*
X39245000Y-49314730D01*
X39245000Y-49221488D01*
X39258464Y-49155000D01*
X39258464Y-48905000D01*
X39245000Y-48833446D01*
X39245000Y-48744250D01*
X39172944Y-48672194D01*
X39148454Y-48634135D01*
X39021134Y-48547141D01*
X38870000Y-48516536D01*
X38655773Y-48516536D01*
X37639117Y-47499881D01*
X37606370Y-47467134D01*
X37610413Y-47461083D01*
X37704117Y-46990000D01*
X37610413Y-46518917D01*
X37343565Y-46119552D01*
X36944200Y-45852704D01*
X36473117Y-45759000D01*
X36424883Y-45759000D01*
X35953800Y-45852704D01*
X35554435Y-46119552D01*
X35287587Y-46518917D01*
X35193883Y-46990000D01*
X35287587Y-47461083D01*
X35554435Y-47860448D01*
X35953800Y-48127296D01*
X36424883Y-48221000D01*
X36473117Y-48221000D01*
X36912388Y-48133624D01*
X36958881Y-48180117D01*
X37827763Y-49049000D01*
X37603787Y-49049000D01*
X37343565Y-48659552D01*
X36944200Y-48392704D01*
X36473117Y-48299000D01*
X36424883Y-48299000D01*
X35953800Y-48392704D01*
X35554435Y-48659552D01*
X35287587Y-49058917D01*
X35193883Y-49530000D01*
X35287587Y-50001083D01*
X35554435Y-50400448D01*
X35953800Y-50667296D01*
X36424883Y-50761000D01*
X36473117Y-50761000D01*
X36944200Y-50667296D01*
X37343565Y-50400448D01*
X37603787Y-50011000D01*
X37827763Y-50011000D01*
X36912387Y-50926376D01*
X36473117Y-50839000D01*
X36424883Y-50839000D01*
X35953800Y-50932704D01*
X35554435Y-51199552D01*
X35287587Y-51598917D01*
X35193883Y-52070000D01*
X35287587Y-52541083D01*
X35554435Y-52940448D01*
X35953800Y-53207296D01*
X36424883Y-53301000D01*
X36473117Y-53301000D01*
X36944200Y-53207296D01*
X37343565Y-52940448D01*
X37610413Y-52541083D01*
X37704117Y-52070000D01*
X37610413Y-51598917D01*
X37606370Y-51592866D01*
X38655773Y-50543464D01*
X38870000Y-50543464D01*
X39011190Y-50516897D01*
X39140865Y-50433454D01*
X39170137Y-50390613D01*
X39242998Y-50317752D01*
X39242998Y-50411000D01*
X39358764Y-50411000D01*
X38219239Y-51550525D01*
X38140882Y-51602882D01*
X38036614Y-51758929D01*
X38000000Y-51943000D01*
X38000000Y-53664000D01*
X38022878Y-53779013D01*
X38036614Y-53848071D01*
X38140882Y-54004118D01*
X38252781Y-54116017D01*
X38235711Y-54141000D01*
X37610827Y-54141000D01*
X37610413Y-54138917D01*
X37343565Y-53739552D01*
X36944200Y-53472704D01*
X36473117Y-53379000D01*
X36424883Y-53379000D01*
X35953800Y-53472704D01*
X35554435Y-53739552D01*
X35287587Y-54138917D01*
X35193883Y-54610000D01*
X35287587Y-55081083D01*
X35554435Y-55480448D01*
X35953800Y-55747296D01*
X36424883Y-55841000D01*
X36473117Y-55841000D01*
X36698271Y-55796214D01*
X38158000Y-55796214D01*
X38158000Y-55901750D01*
X38253250Y-55997000D01*
X38862000Y-55997000D01*
X38862000Y-55586250D01*
X39116000Y-55586250D01*
X39116000Y-55997000D01*
X39724750Y-55997000D01*
X39820000Y-55901750D01*
X39820000Y-55796214D01*
X39761996Y-55656180D01*
X39654819Y-55549004D01*
X39514785Y-55491000D01*
X39211250Y-55491000D01*
X39116000Y-55586250D01*
X38862000Y-55586250D01*
X38766750Y-55491000D01*
X38463215Y-55491000D01*
X38323181Y-55549004D01*
X38216004Y-55656180D01*
X38158000Y-55796214D01*
X36698271Y-55796214D01*
X36944200Y-55747296D01*
X37343565Y-55480448D01*
X37595768Y-55103000D01*
X38234894Y-55103000D01*
X38260546Y-55142865D01*
X38387866Y-55229859D01*
X38539000Y-55260464D01*
X39439000Y-55260464D01*
X39580190Y-55233897D01*
X39709865Y-55150454D01*
X39796859Y-55023134D01*
X39827464Y-54872000D01*
X39827464Y-54372000D01*
X39800897Y-54230810D01*
X39717454Y-54101135D01*
X39590134Y-54014141D01*
X39439000Y-53983536D01*
X39430451Y-53983536D01*
X39421233Y-53969741D01*
X39329118Y-53831881D01*
X38962000Y-53464764D01*
X38962000Y-53356816D01*
X39008180Y-53402996D01*
X39148214Y-53461000D01*
X39401750Y-53461000D01*
X39497000Y-53365750D01*
X39497000Y-52832000D01*
X39477000Y-52832000D01*
X39477000Y-52578000D01*
X39497000Y-52578000D01*
X39497000Y-52044250D01*
X39401750Y-51949000D01*
X39181236Y-51949000D01*
X40435118Y-50695118D01*
X40496311Y-50603537D01*
X40507741Y-50614987D01*
X40757946Y-50718882D01*
X41028865Y-50719118D01*
X41279252Y-50615661D01*
X41470987Y-50424259D01*
X41574882Y-50174054D01*
X41575118Y-49903135D01*
X41471661Y-49652748D01*
X41280259Y-49461013D01*
X41030054Y-49357118D01*
X40759135Y-49356882D01*
X40686255Y-49386995D01*
X40701000Y-49372250D01*
X40701000Y-49329215D01*
X40682318Y-49284113D01*
X40708464Y-49155000D01*
X40708464Y-48905000D01*
X40681897Y-48763810D01*
X40598454Y-48634135D01*
X40576000Y-48618793D01*
X40576000Y-46893919D01*
X40539386Y-46709848D01*
X40499318Y-46649882D01*
X40435118Y-46553800D01*
X37991199Y-44109882D01*
X37835152Y-44005614D01*
X37651081Y-43969000D01*
X37603787Y-43969000D01*
X37343565Y-43579552D01*
X36944200Y-43312704D01*
X36473117Y-43219000D01*
X36424883Y-43219000D01*
X35953800Y-43312704D01*
X35554435Y-43579552D01*
X35287587Y-43978917D01*
X35193883Y-44450000D01*
X29031000Y-44450000D01*
X29031000Y-42366000D01*
X33655000Y-42366000D01*
X33829504Y-42331289D01*
X33977441Y-42232441D01*
X34076289Y-42084504D01*
X34111000Y-41910000D01*
X34111000Y-41663865D01*
X35196382Y-41663865D01*
X35299839Y-41914252D01*
X35491241Y-42105987D01*
X35741446Y-42209882D01*
X36012365Y-42210118D01*
X36262752Y-42106661D01*
X36347560Y-42022000D01*
X38742894Y-42022000D01*
X38768546Y-42061865D01*
X38895866Y-42148859D01*
X39047000Y-42179464D01*
X39947000Y-42179464D01*
X40088190Y-42152897D01*
X40217865Y-42069454D01*
X40296605Y-41954214D01*
X40773000Y-41954214D01*
X40773000Y-42207750D01*
X40868250Y-42303000D01*
X41402000Y-42303000D01*
X41402000Y-41744250D01*
X41306750Y-41649000D01*
X41078215Y-41649000D01*
X40938181Y-41707004D01*
X40831004Y-41814180D01*
X40773000Y-41954214D01*
X40296605Y-41954214D01*
X40304859Y-41942134D01*
X40335464Y-41791000D01*
X40335464Y-41291000D01*
X40308897Y-41149810D01*
X40225454Y-41020135D01*
X40098134Y-40933141D01*
X39947000Y-40902536D01*
X39047000Y-40902536D01*
X38905810Y-40929103D01*
X38776135Y-41012546D01*
X38743711Y-41060000D01*
X36371558Y-41060000D01*
X36263759Y-40952013D01*
X36013554Y-40848118D01*
X35742635Y-40847882D01*
X35492248Y-40951339D01*
X35300513Y-41142741D01*
X35196618Y-41392946D01*
X35196382Y-41663865D01*
X34111000Y-41663865D01*
X34111000Y-40461000D01*
X41783000Y-40461000D01*
X41783000Y-41649000D01*
M02*
