G04 #@! TF.FileFunction,Copper,L2,Bot,Signal*
%FSLAX46Y46*%
G04 Gerber Fmt 4.6, Leading zero omitted, Abs format (unit mm)*
G04 Created by KiCad (PCBNEW 4.0.5+dfsg1-4~bpo8+1) date Mon Mar  5 20:33:18 2018*
%MOMM*%
%LPD*%
G01*
G04 APERTURE LIST*
%ADD10C,0.100000*%
%ADD11R,1.700000X1.700000*%
%ADD12O,1.700000X1.700000*%
%ADD13O,1.250000X1.050000*%
%ADD14R,1.900000X2.100000*%
%ADD15C,0.600000*%
%ADD16C,0.200000*%
%ADD17C,0.254000*%
G04 APERTURE END LIST*
D10*
D11*
X36449000Y-57150000D03*
D12*
X36449000Y-54610000D03*
X36449000Y-52070000D03*
X36449000Y-49530000D03*
X36449000Y-46990000D03*
X36449000Y-44450000D03*
D13*
X68555000Y-53225000D03*
X68555000Y-48375000D03*
D14*
X71555000Y-47300000D03*
X71555000Y-54300000D03*
D15*
X41402000Y-51308000D03*
X40513000Y-43942000D03*
X51435000Y-56515000D03*
X51435000Y-48895000D03*
X51435000Y-50038000D03*
X51435000Y-42545000D03*
X55753000Y-45212000D03*
X57658000Y-49022000D03*
X60325000Y-50800000D03*
X66167000Y-44323000D03*
X64770000Y-44323000D03*
X63246000Y-44323000D03*
X61849000Y-44323000D03*
X62992000Y-51435000D03*
X66929000Y-49530000D03*
X71882000Y-57150000D03*
X61075000Y-48006000D03*
X41656000Y-47625000D03*
X40894000Y-50038000D03*
X41021000Y-54356000D03*
X35877500Y-41529000D03*
X41148000Y-55626000D03*
X41656000Y-46355000D03*
X51435000Y-55245000D03*
X55118000Y-53340000D03*
X51435000Y-53975000D03*
X55880000Y-53975000D03*
X51435000Y-47625000D03*
X56896000Y-50927000D03*
X51435000Y-46355000D03*
X57373027Y-52090641D03*
X65792116Y-49905155D03*
X66929000Y-51450000D03*
D16*
X61722000Y-51816000D02*
X67056000Y-57150000D01*
X67056000Y-57150000D02*
X71882000Y-57150000D01*
X61722000Y-48653000D02*
X61075000Y-48006000D01*
X61722000Y-51816000D02*
X61722000Y-48653000D01*
X41656000Y-47625000D02*
X41656000Y-49276000D01*
X41656000Y-49276000D02*
X41275000Y-49657000D01*
X41275000Y-49657000D02*
X40894000Y-50038000D01*
X41021000Y-54356000D02*
X39370000Y-54356000D01*
X39370000Y-54356000D02*
X38862000Y-53848000D01*
X38862000Y-53848000D02*
X38862000Y-51689000D01*
X38862000Y-51689000D02*
X37552999Y-50379999D01*
X37552999Y-50379999D02*
X37298999Y-50379999D01*
X37298999Y-50379999D02*
X36449000Y-49530000D01*
X35877500Y-41529000D02*
X35877500Y-41953264D01*
X35877500Y-41953264D02*
X34206264Y-43624500D01*
X34206264Y-43624500D02*
X33337500Y-43624500D01*
X33337500Y-43624500D02*
X33147000Y-43815000D01*
X33147000Y-43815000D02*
X33147000Y-45720000D01*
X33147000Y-45720000D02*
X34417000Y-46990000D01*
X34417000Y-46990000D02*
X36449000Y-46990000D01*
X39370000Y-50419000D02*
X39370000Y-49342802D01*
X41656000Y-52705000D02*
X39370000Y-50419000D01*
X41148000Y-55626000D02*
X41656000Y-55118000D01*
X41656000Y-55118000D02*
X41656000Y-52705000D01*
X39370000Y-49342802D02*
X37017198Y-46990000D01*
X37017198Y-46990000D02*
X36449000Y-46990000D01*
X41656000Y-46355000D02*
X41275000Y-46355000D01*
X41275000Y-46355000D02*
X39370000Y-44450000D01*
X39370000Y-44450000D02*
X36449000Y-44450000D01*
X55118000Y-53340000D02*
X53340000Y-53340000D01*
X53340000Y-53340000D02*
X51435000Y-55245000D01*
X55311802Y-52705000D02*
X52705000Y-52705000D01*
X52705000Y-52705000D02*
X51435000Y-53975000D01*
X55880000Y-53975000D02*
X55880000Y-53273198D01*
X55880000Y-53273198D02*
X55311802Y-52705000D01*
X56896000Y-50927000D02*
X54737000Y-50927000D01*
X54737000Y-50927000D02*
X51435000Y-47625000D01*
X57150000Y-50038000D02*
X55118000Y-50038000D01*
X55118000Y-50038000D02*
X51435000Y-46355000D01*
X57673026Y-50561026D02*
X57150000Y-50038000D01*
X57673026Y-51790642D02*
X57673026Y-50561026D01*
X57373027Y-52090641D02*
X57673026Y-51790642D01*
X66929000Y-51054000D02*
X66040000Y-50165000D01*
X66040000Y-50165000D02*
X65913000Y-50038000D01*
X65792116Y-49917116D02*
X66040000Y-50165000D01*
X65792116Y-49905155D02*
X65792116Y-49917116D01*
X66929000Y-51450000D02*
X66929000Y-51054000D01*
D17*
G36*
X41783000Y-45674110D02*
X41521135Y-45673882D01*
X41346341Y-45746105D01*
X39710118Y-44109882D01*
X39554071Y-44005614D01*
X39370000Y-43969000D01*
X37603787Y-43969000D01*
X37343565Y-43579552D01*
X36944200Y-43312704D01*
X36473117Y-43219000D01*
X36424883Y-43219000D01*
X35953800Y-43312704D01*
X35554435Y-43579552D01*
X35287587Y-43978917D01*
X35193883Y-44450000D01*
X35287587Y-44921083D01*
X35554435Y-45320448D01*
X35953800Y-45587296D01*
X36424883Y-45681000D01*
X36473117Y-45681000D01*
X36944200Y-45587296D01*
X37343565Y-45320448D01*
X37603787Y-44931000D01*
X39170764Y-44931000D01*
X40934882Y-46695118D01*
X41090929Y-46799386D01*
X41148877Y-46810913D01*
X41269741Y-46931987D01*
X41409485Y-46990014D01*
X41270748Y-47047339D01*
X41079013Y-47238741D01*
X40975118Y-47488946D01*
X40974882Y-47759865D01*
X41078339Y-48010252D01*
X41175000Y-48107081D01*
X41175000Y-49076763D01*
X40934884Y-49316880D01*
X40934881Y-49316882D01*
X40894763Y-49357000D01*
X40759135Y-49356882D01*
X40508748Y-49460339D01*
X40317013Y-49651741D01*
X40213118Y-49901946D01*
X40212882Y-50172865D01*
X40316339Y-50423252D01*
X40507741Y-50614987D01*
X40757946Y-50718882D01*
X41028865Y-50719118D01*
X41279252Y-50615661D01*
X41470987Y-50424259D01*
X41574882Y-50174054D01*
X41575001Y-50037236D01*
X41615118Y-49997119D01*
X41615120Y-49997116D01*
X41783000Y-49829236D01*
X41783000Y-52151763D01*
X39851000Y-50219764D01*
X39851000Y-49342802D01*
X39814386Y-49158731D01*
X39769751Y-49091930D01*
X39710118Y-49002683D01*
X37703008Y-46995574D01*
X37704117Y-46990000D01*
X37610413Y-46518917D01*
X37343565Y-46119552D01*
X36944200Y-45852704D01*
X36473117Y-45759000D01*
X36424883Y-45759000D01*
X35953800Y-45852704D01*
X35554435Y-46119552D01*
X35294213Y-46509000D01*
X34616237Y-46509000D01*
X33628000Y-45520764D01*
X33628000Y-44105500D01*
X34206264Y-44105500D01*
X34390335Y-44068886D01*
X34546382Y-43964618D01*
X36217619Y-42293382D01*
X36280122Y-42199838D01*
X36321886Y-42137335D01*
X36344150Y-42025404D01*
X36454487Y-41915259D01*
X36558382Y-41665054D01*
X36558618Y-41394135D01*
X36455161Y-41143748D01*
X36263759Y-40952013D01*
X36013554Y-40848118D01*
X35742635Y-40847882D01*
X35492248Y-40951339D01*
X35300513Y-41142741D01*
X35196618Y-41392946D01*
X35196382Y-41663865D01*
X35281254Y-41869273D01*
X34007028Y-43143500D01*
X33337500Y-43143500D01*
X33153429Y-43180114D01*
X33095232Y-43219000D01*
X32997382Y-43284381D01*
X32806882Y-43474882D01*
X32702614Y-43630929D01*
X32666000Y-43815000D01*
X32666000Y-45720000D01*
X32696633Y-45874000D01*
X32702614Y-45904071D01*
X32806882Y-46060118D01*
X34076881Y-47330118D01*
X34232929Y-47434386D01*
X34417000Y-47471000D01*
X35294213Y-47471000D01*
X35554435Y-47860448D01*
X35953800Y-48127296D01*
X36424883Y-48221000D01*
X36473117Y-48221000D01*
X36944200Y-48127296D01*
X37261946Y-47914984D01*
X38889000Y-49542039D01*
X38889000Y-50419000D01*
X38908891Y-50518999D01*
X38925614Y-50603071D01*
X39029882Y-50759118D01*
X41175000Y-52904237D01*
X41175000Y-53682570D01*
X41157054Y-53675118D01*
X40886135Y-53674882D01*
X40635748Y-53778339D01*
X40538919Y-53875000D01*
X39569237Y-53875000D01*
X39343000Y-53648764D01*
X39343000Y-51689000D01*
X39306386Y-51504929D01*
X39202118Y-51348882D01*
X37893117Y-50039881D01*
X37737070Y-49935613D01*
X37627761Y-49913870D01*
X37704117Y-49530000D01*
X37610413Y-49058917D01*
X37343565Y-48659552D01*
X36944200Y-48392704D01*
X36473117Y-48299000D01*
X36424883Y-48299000D01*
X35953800Y-48392704D01*
X35554435Y-48659552D01*
X35287587Y-49058917D01*
X35193883Y-49530000D01*
X35287587Y-50001083D01*
X35554435Y-50400448D01*
X35953800Y-50667296D01*
X36424883Y-50761000D01*
X36473117Y-50761000D01*
X36912388Y-50673624D01*
X36958881Y-50720117D01*
X37114928Y-50824385D01*
X37298999Y-50860999D01*
X37353763Y-50860999D01*
X38381000Y-51888236D01*
X38381000Y-53848000D01*
X38386371Y-53875000D01*
X38417614Y-54032071D01*
X38521882Y-54188118D01*
X39029881Y-54696118D01*
X39185929Y-54800386D01*
X39370000Y-54837000D01*
X40538921Y-54837000D01*
X40634741Y-54932987D01*
X40837828Y-55017317D01*
X40762748Y-55048339D01*
X40571013Y-55239741D01*
X40467118Y-55489946D01*
X40466882Y-55760865D01*
X40570339Y-56011252D01*
X40761741Y-56202987D01*
X41011946Y-56306882D01*
X41282865Y-56307118D01*
X41533252Y-56203661D01*
X41724987Y-56012259D01*
X41783000Y-55872549D01*
X41783000Y-61139000D01*
X34111000Y-61139000D01*
X34111000Y-59690000D01*
X34076289Y-59515496D01*
X33977441Y-59367559D01*
X33829504Y-59268711D01*
X33655000Y-59234000D01*
X29031000Y-59234000D01*
X29031000Y-56300000D01*
X35210536Y-56300000D01*
X35210536Y-58000000D01*
X35237103Y-58141190D01*
X35320546Y-58270865D01*
X35447866Y-58357859D01*
X35599000Y-58388464D01*
X37299000Y-58388464D01*
X37440190Y-58361897D01*
X37569865Y-58278454D01*
X37656859Y-58151134D01*
X37687464Y-58000000D01*
X37687464Y-56300000D01*
X37660897Y-56158810D01*
X37577454Y-56029135D01*
X37450134Y-55942141D01*
X37299000Y-55911536D01*
X35599000Y-55911536D01*
X35457810Y-55938103D01*
X35328135Y-56021546D01*
X35241141Y-56148866D01*
X35210536Y-56300000D01*
X29031000Y-56300000D01*
X29031000Y-54610000D01*
X35193883Y-54610000D01*
X35287587Y-55081083D01*
X35554435Y-55480448D01*
X35953800Y-55747296D01*
X36424883Y-55841000D01*
X36473117Y-55841000D01*
X36944200Y-55747296D01*
X37343565Y-55480448D01*
X37610413Y-55081083D01*
X37704117Y-54610000D01*
X37610413Y-54138917D01*
X37343565Y-53739552D01*
X36944200Y-53472704D01*
X36473117Y-53379000D01*
X36424883Y-53379000D01*
X35953800Y-53472704D01*
X35554435Y-53739552D01*
X35287587Y-54138917D01*
X35193883Y-54610000D01*
X29031000Y-54610000D01*
X29031000Y-52386980D01*
X35259511Y-52386980D01*
X35383755Y-52686964D01*
X35700944Y-53047652D01*
X36132018Y-53259501D01*
X36322000Y-53199193D01*
X36322000Y-52197000D01*
X36576000Y-52197000D01*
X36576000Y-53199193D01*
X36765982Y-53259501D01*
X37197056Y-53047652D01*
X37514245Y-52686964D01*
X37638489Y-52386980D01*
X37577627Y-52197000D01*
X36576000Y-52197000D01*
X36322000Y-52197000D01*
X35320373Y-52197000D01*
X35259511Y-52386980D01*
X29031000Y-52386980D01*
X29031000Y-51753020D01*
X35259511Y-51753020D01*
X35320373Y-51943000D01*
X36322000Y-51943000D01*
X36322000Y-50940807D01*
X36576000Y-50940807D01*
X36576000Y-51943000D01*
X37577627Y-51943000D01*
X37638489Y-51753020D01*
X37514245Y-51453036D01*
X37197056Y-51092348D01*
X36765982Y-50880499D01*
X36576000Y-50940807D01*
X36322000Y-50940807D01*
X36132018Y-50880499D01*
X35700944Y-51092348D01*
X35383755Y-51453036D01*
X35259511Y-51753020D01*
X29031000Y-51753020D01*
X29031000Y-42366000D01*
X33655000Y-42366000D01*
X33829504Y-42331289D01*
X33977441Y-42232441D01*
X34076289Y-42084504D01*
X34111000Y-41910000D01*
X34111000Y-40461000D01*
X41783000Y-40461000D01*
X41783000Y-45674110D01*
X41783000Y-45674110D01*
G37*
X41783000Y-45674110D02*
X41521135Y-45673882D01*
X41346341Y-45746105D01*
X39710118Y-44109882D01*
X39554071Y-44005614D01*
X39370000Y-43969000D01*
X37603787Y-43969000D01*
X37343565Y-43579552D01*
X36944200Y-43312704D01*
X36473117Y-43219000D01*
X36424883Y-43219000D01*
X35953800Y-43312704D01*
X35554435Y-43579552D01*
X35287587Y-43978917D01*
X35193883Y-44450000D01*
X35287587Y-44921083D01*
X35554435Y-45320448D01*
X35953800Y-45587296D01*
X36424883Y-45681000D01*
X36473117Y-45681000D01*
X36944200Y-45587296D01*
X37343565Y-45320448D01*
X37603787Y-44931000D01*
X39170764Y-44931000D01*
X40934882Y-46695118D01*
X41090929Y-46799386D01*
X41148877Y-46810913D01*
X41269741Y-46931987D01*
X41409485Y-46990014D01*
X41270748Y-47047339D01*
X41079013Y-47238741D01*
X40975118Y-47488946D01*
X40974882Y-47759865D01*
X41078339Y-48010252D01*
X41175000Y-48107081D01*
X41175000Y-49076763D01*
X40934884Y-49316880D01*
X40934881Y-49316882D01*
X40894763Y-49357000D01*
X40759135Y-49356882D01*
X40508748Y-49460339D01*
X40317013Y-49651741D01*
X40213118Y-49901946D01*
X40212882Y-50172865D01*
X40316339Y-50423252D01*
X40507741Y-50614987D01*
X40757946Y-50718882D01*
X41028865Y-50719118D01*
X41279252Y-50615661D01*
X41470987Y-50424259D01*
X41574882Y-50174054D01*
X41575001Y-50037236D01*
X41615118Y-49997119D01*
X41615120Y-49997116D01*
X41783000Y-49829236D01*
X41783000Y-52151763D01*
X39851000Y-50219764D01*
X39851000Y-49342802D01*
X39814386Y-49158731D01*
X39769751Y-49091930D01*
X39710118Y-49002683D01*
X37703008Y-46995574D01*
X37704117Y-46990000D01*
X37610413Y-46518917D01*
X37343565Y-46119552D01*
X36944200Y-45852704D01*
X36473117Y-45759000D01*
X36424883Y-45759000D01*
X35953800Y-45852704D01*
X35554435Y-46119552D01*
X35294213Y-46509000D01*
X34616237Y-46509000D01*
X33628000Y-45520764D01*
X33628000Y-44105500D01*
X34206264Y-44105500D01*
X34390335Y-44068886D01*
X34546382Y-43964618D01*
X36217619Y-42293382D01*
X36280122Y-42199838D01*
X36321886Y-42137335D01*
X36344150Y-42025404D01*
X36454487Y-41915259D01*
X36558382Y-41665054D01*
X36558618Y-41394135D01*
X36455161Y-41143748D01*
X36263759Y-40952013D01*
X36013554Y-40848118D01*
X35742635Y-40847882D01*
X35492248Y-40951339D01*
X35300513Y-41142741D01*
X35196618Y-41392946D01*
X35196382Y-41663865D01*
X35281254Y-41869273D01*
X34007028Y-43143500D01*
X33337500Y-43143500D01*
X33153429Y-43180114D01*
X33095232Y-43219000D01*
X32997382Y-43284381D01*
X32806882Y-43474882D01*
X32702614Y-43630929D01*
X32666000Y-43815000D01*
X32666000Y-45720000D01*
X32696633Y-45874000D01*
X32702614Y-45904071D01*
X32806882Y-46060118D01*
X34076881Y-47330118D01*
X34232929Y-47434386D01*
X34417000Y-47471000D01*
X35294213Y-47471000D01*
X35554435Y-47860448D01*
X35953800Y-48127296D01*
X36424883Y-48221000D01*
X36473117Y-48221000D01*
X36944200Y-48127296D01*
X37261946Y-47914984D01*
X38889000Y-49542039D01*
X38889000Y-50419000D01*
X38908891Y-50518999D01*
X38925614Y-50603071D01*
X39029882Y-50759118D01*
X41175000Y-52904237D01*
X41175000Y-53682570D01*
X41157054Y-53675118D01*
X40886135Y-53674882D01*
X40635748Y-53778339D01*
X40538919Y-53875000D01*
X39569237Y-53875000D01*
X39343000Y-53648764D01*
X39343000Y-51689000D01*
X39306386Y-51504929D01*
X39202118Y-51348882D01*
X37893117Y-50039881D01*
X37737070Y-49935613D01*
X37627761Y-49913870D01*
X37704117Y-49530000D01*
X37610413Y-49058917D01*
X37343565Y-48659552D01*
X36944200Y-48392704D01*
X36473117Y-48299000D01*
X36424883Y-48299000D01*
X35953800Y-48392704D01*
X35554435Y-48659552D01*
X35287587Y-49058917D01*
X35193883Y-49530000D01*
X35287587Y-50001083D01*
X35554435Y-50400448D01*
X35953800Y-50667296D01*
X36424883Y-50761000D01*
X36473117Y-50761000D01*
X36912388Y-50673624D01*
X36958881Y-50720117D01*
X37114928Y-50824385D01*
X37298999Y-50860999D01*
X37353763Y-50860999D01*
X38381000Y-51888236D01*
X38381000Y-53848000D01*
X38386371Y-53875000D01*
X38417614Y-54032071D01*
X38521882Y-54188118D01*
X39029881Y-54696118D01*
X39185929Y-54800386D01*
X39370000Y-54837000D01*
X40538921Y-54837000D01*
X40634741Y-54932987D01*
X40837828Y-55017317D01*
X40762748Y-55048339D01*
X40571013Y-55239741D01*
X40467118Y-55489946D01*
X40466882Y-55760865D01*
X40570339Y-56011252D01*
X40761741Y-56202987D01*
X41011946Y-56306882D01*
X41282865Y-56307118D01*
X41533252Y-56203661D01*
X41724987Y-56012259D01*
X41783000Y-55872549D01*
X41783000Y-61139000D01*
X34111000Y-61139000D01*
X34111000Y-59690000D01*
X34076289Y-59515496D01*
X33977441Y-59367559D01*
X33829504Y-59268711D01*
X33655000Y-59234000D01*
X29031000Y-59234000D01*
X29031000Y-56300000D01*
X35210536Y-56300000D01*
X35210536Y-58000000D01*
X35237103Y-58141190D01*
X35320546Y-58270865D01*
X35447866Y-58357859D01*
X35599000Y-58388464D01*
X37299000Y-58388464D01*
X37440190Y-58361897D01*
X37569865Y-58278454D01*
X37656859Y-58151134D01*
X37687464Y-58000000D01*
X37687464Y-56300000D01*
X37660897Y-56158810D01*
X37577454Y-56029135D01*
X37450134Y-55942141D01*
X37299000Y-55911536D01*
X35599000Y-55911536D01*
X35457810Y-55938103D01*
X35328135Y-56021546D01*
X35241141Y-56148866D01*
X35210536Y-56300000D01*
X29031000Y-56300000D01*
X29031000Y-54610000D01*
X35193883Y-54610000D01*
X35287587Y-55081083D01*
X35554435Y-55480448D01*
X35953800Y-55747296D01*
X36424883Y-55841000D01*
X36473117Y-55841000D01*
X36944200Y-55747296D01*
X37343565Y-55480448D01*
X37610413Y-55081083D01*
X37704117Y-54610000D01*
X37610413Y-54138917D01*
X37343565Y-53739552D01*
X36944200Y-53472704D01*
X36473117Y-53379000D01*
X36424883Y-53379000D01*
X35953800Y-53472704D01*
X35554435Y-53739552D01*
X35287587Y-54138917D01*
X35193883Y-54610000D01*
X29031000Y-54610000D01*
X29031000Y-52386980D01*
X35259511Y-52386980D01*
X35383755Y-52686964D01*
X35700944Y-53047652D01*
X36132018Y-53259501D01*
X36322000Y-53199193D01*
X36322000Y-52197000D01*
X36576000Y-52197000D01*
X36576000Y-53199193D01*
X36765982Y-53259501D01*
X37197056Y-53047652D01*
X37514245Y-52686964D01*
X37638489Y-52386980D01*
X37577627Y-52197000D01*
X36576000Y-52197000D01*
X36322000Y-52197000D01*
X35320373Y-52197000D01*
X35259511Y-52386980D01*
X29031000Y-52386980D01*
X29031000Y-51753020D01*
X35259511Y-51753020D01*
X35320373Y-51943000D01*
X36322000Y-51943000D01*
X36322000Y-50940807D01*
X36576000Y-50940807D01*
X36576000Y-51943000D01*
X37577627Y-51943000D01*
X37638489Y-51753020D01*
X37514245Y-51453036D01*
X37197056Y-51092348D01*
X36765982Y-50880499D01*
X36576000Y-50940807D01*
X36322000Y-50940807D01*
X36132018Y-50880499D01*
X35700944Y-51092348D01*
X35383755Y-51453036D01*
X35259511Y-51753020D01*
X29031000Y-51753020D01*
X29031000Y-42366000D01*
X33655000Y-42366000D01*
X33829504Y-42331289D01*
X33977441Y-42232441D01*
X34076289Y-42084504D01*
X34111000Y-41910000D01*
X34111000Y-40461000D01*
X41783000Y-40461000D01*
X41783000Y-45674110D01*
G36*
X67489000Y-41910000D02*
X67523711Y-42084504D01*
X67622559Y-42232441D01*
X67770496Y-42331289D01*
X67945000Y-42366000D01*
X72569000Y-42366000D01*
X72569000Y-45869000D01*
X71777250Y-45869000D01*
X71682000Y-45964250D01*
X71682000Y-47173000D01*
X71702000Y-47173000D01*
X71702000Y-47427000D01*
X71682000Y-47427000D01*
X71682000Y-48635750D01*
X71777250Y-48731000D01*
X72569000Y-48731000D01*
X72569000Y-52869000D01*
X71777250Y-52869000D01*
X71682000Y-52964250D01*
X71682000Y-54173000D01*
X71702000Y-54173000D01*
X71702000Y-54427000D01*
X71682000Y-54427000D01*
X71682000Y-55635750D01*
X71777250Y-55731000D01*
X72569000Y-55731000D01*
X72569000Y-59234000D01*
X67945000Y-59234000D01*
X67770496Y-59268711D01*
X67622559Y-59367559D01*
X67523711Y-59515496D01*
X67489000Y-59690000D01*
X67489000Y-61139000D01*
X50927000Y-61139000D01*
X50927000Y-59335855D01*
X52000881Y-59335855D01*
X52105098Y-59588080D01*
X52297905Y-59781224D01*
X52549947Y-59885881D01*
X52822855Y-59886119D01*
X53075080Y-59781902D01*
X53268224Y-59589095D01*
X53372881Y-59337053D01*
X53372882Y-59335855D01*
X57207881Y-59335855D01*
X57312098Y-59588080D01*
X57504905Y-59781224D01*
X57756947Y-59885881D01*
X58029855Y-59886119D01*
X58282080Y-59781902D01*
X58475224Y-59589095D01*
X58579881Y-59337053D01*
X58580119Y-59064145D01*
X58475902Y-58811920D01*
X58283095Y-58618776D01*
X58031053Y-58514119D01*
X57758145Y-58513881D01*
X57505920Y-58618098D01*
X57312776Y-58810905D01*
X57208119Y-59062947D01*
X57207881Y-59335855D01*
X53372882Y-59335855D01*
X53373119Y-59064145D01*
X53268902Y-58811920D01*
X53076095Y-58618776D01*
X52824053Y-58514119D01*
X52551145Y-58513881D01*
X52298920Y-58618098D01*
X52105776Y-58810905D01*
X52001119Y-59062947D01*
X52000881Y-59335855D01*
X50927000Y-59335855D01*
X50927000Y-55700034D01*
X51048741Y-55821987D01*
X51298946Y-55925882D01*
X51569865Y-55926118D01*
X51820252Y-55822661D01*
X52011987Y-55631259D01*
X52115882Y-55381054D01*
X52116001Y-55244235D01*
X52124381Y-55235855D01*
X56100881Y-55235855D01*
X56205098Y-55488080D01*
X56397905Y-55681224D01*
X56649947Y-55785881D01*
X56922855Y-55786119D01*
X57175080Y-55681902D01*
X57368224Y-55489095D01*
X57472881Y-55237053D01*
X57472882Y-55235855D01*
X61307881Y-55235855D01*
X61412098Y-55488080D01*
X61604905Y-55681224D01*
X61856947Y-55785881D01*
X62129855Y-55786119D01*
X62382080Y-55681902D01*
X62575224Y-55489095D01*
X62679881Y-55237053D01*
X62680119Y-54964145D01*
X62575902Y-54711920D01*
X62383095Y-54518776D01*
X62131053Y-54414119D01*
X61858145Y-54413881D01*
X61605920Y-54518098D01*
X61412776Y-54710905D01*
X61308119Y-54962947D01*
X61307881Y-55235855D01*
X57472882Y-55235855D01*
X57473119Y-54964145D01*
X57368902Y-54711920D01*
X57176095Y-54518776D01*
X56924053Y-54414119D01*
X56651145Y-54413881D01*
X56398920Y-54518098D01*
X56205776Y-54710905D01*
X56101119Y-54962947D01*
X56100881Y-55235855D01*
X52124381Y-55235855D01*
X53539236Y-53821000D01*
X54635921Y-53821000D01*
X54731741Y-53916987D01*
X54981946Y-54020882D01*
X55198959Y-54021071D01*
X55198882Y-54109865D01*
X55302339Y-54360252D01*
X55493741Y-54551987D01*
X55743946Y-54655882D01*
X56014865Y-54656118D01*
X56265252Y-54552661D01*
X56456987Y-54361259D01*
X56560882Y-54111054D01*
X56561118Y-53840135D01*
X56457661Y-53589748D01*
X56361000Y-53492919D01*
X56361000Y-53273198D01*
X56324386Y-53089127D01*
X56294980Y-53045118D01*
X56220118Y-52933079D01*
X55651920Y-52364882D01*
X55495873Y-52260614D01*
X55494727Y-52260386D01*
X55311802Y-52224000D01*
X52705000Y-52224000D01*
X52522075Y-52260386D01*
X52520929Y-52260614D01*
X52364881Y-52364882D01*
X51435764Y-53294000D01*
X51300135Y-53293882D01*
X51049748Y-53397339D01*
X50927000Y-53519874D01*
X50927000Y-48080034D01*
X51048741Y-48201987D01*
X51298946Y-48305882D01*
X51435765Y-48306001D01*
X54396882Y-51267118D01*
X54552929Y-51371386D01*
X54737000Y-51408000D01*
X56413921Y-51408000D01*
X56509741Y-51503987D01*
X56759946Y-51607882D01*
X56892592Y-51607998D01*
X56796040Y-51704382D01*
X56692145Y-51954587D01*
X56691909Y-52225506D01*
X56795366Y-52475893D01*
X56986768Y-52667628D01*
X57236973Y-52771523D01*
X57507892Y-52771759D01*
X57758279Y-52668302D01*
X57950014Y-52476900D01*
X58053909Y-52226695D01*
X58054046Y-52069547D01*
X58082483Y-52026987D01*
X58117412Y-51974713D01*
X58154026Y-51790642D01*
X58154026Y-50561026D01*
X58117412Y-50376955D01*
X58099410Y-50350013D01*
X58013144Y-50220907D01*
X57490118Y-49697882D01*
X57334071Y-49593614D01*
X57150000Y-49557000D01*
X55317237Y-49557000D01*
X53901102Y-48140865D01*
X60393882Y-48140865D01*
X60497339Y-48391252D01*
X60688741Y-48582987D01*
X60938946Y-48686882D01*
X61075765Y-48687001D01*
X61241000Y-48852236D01*
X61241000Y-51816000D01*
X61277614Y-52000071D01*
X61381882Y-52156118D01*
X66715882Y-57490118D01*
X66871929Y-57594386D01*
X67056000Y-57631000D01*
X71399921Y-57631000D01*
X71495741Y-57726987D01*
X71745946Y-57830882D01*
X72016865Y-57831118D01*
X72267252Y-57727661D01*
X72458987Y-57536259D01*
X72562882Y-57286054D01*
X72563118Y-57015135D01*
X72459661Y-56764748D01*
X72268259Y-56573013D01*
X72018054Y-56469118D01*
X71747135Y-56468882D01*
X71496748Y-56572339D01*
X71399919Y-56669000D01*
X67255236Y-56669000D01*
X65108486Y-54522250D01*
X70224000Y-54522250D01*
X70224000Y-55425786D01*
X70282004Y-55565820D01*
X70389181Y-55672996D01*
X70529215Y-55731000D01*
X71332750Y-55731000D01*
X71428000Y-55635750D01*
X71428000Y-54427000D01*
X70319250Y-54427000D01*
X70224000Y-54522250D01*
X65108486Y-54522250D01*
X64077003Y-53490767D01*
X67588856Y-53490767D01*
X67707690Y-53734578D01*
X67959583Y-53981772D01*
X68286899Y-54113754D01*
X68428000Y-54033859D01*
X68428000Y-53352000D01*
X68682000Y-53352000D01*
X68682000Y-54033859D01*
X68823101Y-54113754D01*
X69150417Y-53981772D01*
X69402310Y-53734578D01*
X69521144Y-53490767D01*
X69455741Y-53352000D01*
X68682000Y-53352000D01*
X68428000Y-53352000D01*
X67654259Y-53352000D01*
X67588856Y-53490767D01*
X64077003Y-53490767D01*
X63760450Y-53174214D01*
X70224000Y-53174214D01*
X70224000Y-54077750D01*
X70319250Y-54173000D01*
X71428000Y-54173000D01*
X71428000Y-52964250D01*
X71332750Y-52869000D01*
X70529215Y-52869000D01*
X70389181Y-52927004D01*
X70282004Y-53034180D01*
X70224000Y-53174214D01*
X63760450Y-53174214D01*
X63545469Y-52959233D01*
X67588856Y-52959233D01*
X67654259Y-53098000D01*
X68428000Y-53098000D01*
X68428000Y-52416141D01*
X68682000Y-52416141D01*
X68682000Y-53098000D01*
X69455741Y-53098000D01*
X69521144Y-52959233D01*
X69402310Y-52715422D01*
X69150417Y-52468228D01*
X68823101Y-52336246D01*
X68682000Y-52416141D01*
X68428000Y-52416141D01*
X68286899Y-52336246D01*
X67959583Y-52468228D01*
X67707690Y-52715422D01*
X67588856Y-52959233D01*
X63545469Y-52959233D01*
X62203000Y-51616764D01*
X62203000Y-50040020D01*
X65110998Y-50040020D01*
X65214455Y-50290407D01*
X65405857Y-50482142D01*
X65656062Y-50586037D01*
X65780910Y-50586146D01*
X66324577Y-51129813D01*
X66248118Y-51313946D01*
X66247882Y-51584865D01*
X66351339Y-51835252D01*
X66542741Y-52026987D01*
X66792946Y-52130882D01*
X67063865Y-52131118D01*
X67314252Y-52027661D01*
X67505987Y-51836259D01*
X67609882Y-51586054D01*
X67610118Y-51315135D01*
X67506661Y-51064748D01*
X67388617Y-50946498D01*
X67373386Y-50869929D01*
X67269118Y-50713882D01*
X66473105Y-49917869D01*
X66473234Y-49770290D01*
X66369777Y-49519903D01*
X66178375Y-49328168D01*
X65928170Y-49224273D01*
X65657251Y-49224037D01*
X65406864Y-49327494D01*
X65215129Y-49518896D01*
X65111234Y-49769101D01*
X65110998Y-50040020D01*
X62203000Y-50040020D01*
X62203000Y-48653000D01*
X62200567Y-48640767D01*
X67588856Y-48640767D01*
X67707690Y-48884578D01*
X67959583Y-49131772D01*
X68286899Y-49263754D01*
X68428000Y-49183859D01*
X68428000Y-48502000D01*
X68682000Y-48502000D01*
X68682000Y-49183859D01*
X68823101Y-49263754D01*
X69150417Y-49131772D01*
X69402310Y-48884578D01*
X69521144Y-48640767D01*
X69455741Y-48502000D01*
X68682000Y-48502000D01*
X68428000Y-48502000D01*
X67654259Y-48502000D01*
X67588856Y-48640767D01*
X62200567Y-48640767D01*
X62166386Y-48468929D01*
X62062118Y-48312882D01*
X61858469Y-48109233D01*
X67588856Y-48109233D01*
X67654259Y-48248000D01*
X68428000Y-48248000D01*
X68428000Y-47566141D01*
X68682000Y-47566141D01*
X68682000Y-48248000D01*
X69455741Y-48248000D01*
X69521144Y-48109233D01*
X69402310Y-47865422D01*
X69150417Y-47618228D01*
X68912392Y-47522250D01*
X70224000Y-47522250D01*
X70224000Y-48425786D01*
X70282004Y-48565820D01*
X70389181Y-48672996D01*
X70529215Y-48731000D01*
X71332750Y-48731000D01*
X71428000Y-48635750D01*
X71428000Y-47427000D01*
X70319250Y-47427000D01*
X70224000Y-47522250D01*
X68912392Y-47522250D01*
X68823101Y-47486246D01*
X68682000Y-47566141D01*
X68428000Y-47566141D01*
X68286899Y-47486246D01*
X67959583Y-47618228D01*
X67707690Y-47865422D01*
X67588856Y-48109233D01*
X61858469Y-48109233D01*
X61756000Y-48006764D01*
X61756118Y-47871135D01*
X61652661Y-47620748D01*
X61461259Y-47429013D01*
X61211054Y-47325118D01*
X60940135Y-47324882D01*
X60689748Y-47428339D01*
X60498013Y-47619741D01*
X60394118Y-47869946D01*
X60393882Y-48140865D01*
X53901102Y-48140865D01*
X52910246Y-47150010D01*
X53075080Y-47081902D01*
X53268224Y-46889095D01*
X53372881Y-46637053D01*
X53373119Y-46364145D01*
X53294642Y-46174214D01*
X70224000Y-46174214D01*
X70224000Y-47077750D01*
X70319250Y-47173000D01*
X71428000Y-47173000D01*
X71428000Y-45964250D01*
X71332750Y-45869000D01*
X70529215Y-45869000D01*
X70389181Y-45927004D01*
X70282004Y-46034180D01*
X70224000Y-46174214D01*
X53294642Y-46174214D01*
X53268902Y-46111920D01*
X53076095Y-45918776D01*
X52824053Y-45814119D01*
X52551145Y-45813881D01*
X52298920Y-45918098D01*
X52105776Y-46110905D01*
X52088338Y-46152901D01*
X52012661Y-45969748D01*
X51821259Y-45778013D01*
X51571054Y-45674118D01*
X51300135Y-45673882D01*
X51049748Y-45777339D01*
X50927000Y-45899874D01*
X50927000Y-42535855D01*
X56100881Y-42535855D01*
X56205098Y-42788080D01*
X56397905Y-42981224D01*
X56649947Y-43085881D01*
X56922855Y-43086119D01*
X57175080Y-42981902D01*
X57368224Y-42789095D01*
X57472881Y-42537053D01*
X57473119Y-42264145D01*
X57368902Y-42011920D01*
X57176095Y-41818776D01*
X56924053Y-41714119D01*
X56651145Y-41713881D01*
X56398920Y-41818098D01*
X56205776Y-42010905D01*
X56101119Y-42262947D01*
X56100881Y-42535855D01*
X50927000Y-42535855D01*
X50927000Y-40461000D01*
X67489000Y-40461000D01*
X67489000Y-41910000D01*
X67489000Y-41910000D01*
G37*
X67489000Y-41910000D02*
X67523711Y-42084504D01*
X67622559Y-42232441D01*
X67770496Y-42331289D01*
X67945000Y-42366000D01*
X72569000Y-42366000D01*
X72569000Y-45869000D01*
X71777250Y-45869000D01*
X71682000Y-45964250D01*
X71682000Y-47173000D01*
X71702000Y-47173000D01*
X71702000Y-47427000D01*
X71682000Y-47427000D01*
X71682000Y-48635750D01*
X71777250Y-48731000D01*
X72569000Y-48731000D01*
X72569000Y-52869000D01*
X71777250Y-52869000D01*
X71682000Y-52964250D01*
X71682000Y-54173000D01*
X71702000Y-54173000D01*
X71702000Y-54427000D01*
X71682000Y-54427000D01*
X71682000Y-55635750D01*
X71777250Y-55731000D01*
X72569000Y-55731000D01*
X72569000Y-59234000D01*
X67945000Y-59234000D01*
X67770496Y-59268711D01*
X67622559Y-59367559D01*
X67523711Y-59515496D01*
X67489000Y-59690000D01*
X67489000Y-61139000D01*
X50927000Y-61139000D01*
X50927000Y-59335855D01*
X52000881Y-59335855D01*
X52105098Y-59588080D01*
X52297905Y-59781224D01*
X52549947Y-59885881D01*
X52822855Y-59886119D01*
X53075080Y-59781902D01*
X53268224Y-59589095D01*
X53372881Y-59337053D01*
X53372882Y-59335855D01*
X57207881Y-59335855D01*
X57312098Y-59588080D01*
X57504905Y-59781224D01*
X57756947Y-59885881D01*
X58029855Y-59886119D01*
X58282080Y-59781902D01*
X58475224Y-59589095D01*
X58579881Y-59337053D01*
X58580119Y-59064145D01*
X58475902Y-58811920D01*
X58283095Y-58618776D01*
X58031053Y-58514119D01*
X57758145Y-58513881D01*
X57505920Y-58618098D01*
X57312776Y-58810905D01*
X57208119Y-59062947D01*
X57207881Y-59335855D01*
X53372882Y-59335855D01*
X53373119Y-59064145D01*
X53268902Y-58811920D01*
X53076095Y-58618776D01*
X52824053Y-58514119D01*
X52551145Y-58513881D01*
X52298920Y-58618098D01*
X52105776Y-58810905D01*
X52001119Y-59062947D01*
X52000881Y-59335855D01*
X50927000Y-59335855D01*
X50927000Y-55700034D01*
X51048741Y-55821987D01*
X51298946Y-55925882D01*
X51569865Y-55926118D01*
X51820252Y-55822661D01*
X52011987Y-55631259D01*
X52115882Y-55381054D01*
X52116001Y-55244235D01*
X52124381Y-55235855D01*
X56100881Y-55235855D01*
X56205098Y-55488080D01*
X56397905Y-55681224D01*
X56649947Y-55785881D01*
X56922855Y-55786119D01*
X57175080Y-55681902D01*
X57368224Y-55489095D01*
X57472881Y-55237053D01*
X57472882Y-55235855D01*
X61307881Y-55235855D01*
X61412098Y-55488080D01*
X61604905Y-55681224D01*
X61856947Y-55785881D01*
X62129855Y-55786119D01*
X62382080Y-55681902D01*
X62575224Y-55489095D01*
X62679881Y-55237053D01*
X62680119Y-54964145D01*
X62575902Y-54711920D01*
X62383095Y-54518776D01*
X62131053Y-54414119D01*
X61858145Y-54413881D01*
X61605920Y-54518098D01*
X61412776Y-54710905D01*
X61308119Y-54962947D01*
X61307881Y-55235855D01*
X57472882Y-55235855D01*
X57473119Y-54964145D01*
X57368902Y-54711920D01*
X57176095Y-54518776D01*
X56924053Y-54414119D01*
X56651145Y-54413881D01*
X56398920Y-54518098D01*
X56205776Y-54710905D01*
X56101119Y-54962947D01*
X56100881Y-55235855D01*
X52124381Y-55235855D01*
X53539236Y-53821000D01*
X54635921Y-53821000D01*
X54731741Y-53916987D01*
X54981946Y-54020882D01*
X55198959Y-54021071D01*
X55198882Y-54109865D01*
X55302339Y-54360252D01*
X55493741Y-54551987D01*
X55743946Y-54655882D01*
X56014865Y-54656118D01*
X56265252Y-54552661D01*
X56456987Y-54361259D01*
X56560882Y-54111054D01*
X56561118Y-53840135D01*
X56457661Y-53589748D01*
X56361000Y-53492919D01*
X56361000Y-53273198D01*
X56324386Y-53089127D01*
X56294980Y-53045118D01*
X56220118Y-52933079D01*
X55651920Y-52364882D01*
X55495873Y-52260614D01*
X55494727Y-52260386D01*
X55311802Y-52224000D01*
X52705000Y-52224000D01*
X52522075Y-52260386D01*
X52520929Y-52260614D01*
X52364881Y-52364882D01*
X51435764Y-53294000D01*
X51300135Y-53293882D01*
X51049748Y-53397339D01*
X50927000Y-53519874D01*
X50927000Y-48080034D01*
X51048741Y-48201987D01*
X51298946Y-48305882D01*
X51435765Y-48306001D01*
X54396882Y-51267118D01*
X54552929Y-51371386D01*
X54737000Y-51408000D01*
X56413921Y-51408000D01*
X56509741Y-51503987D01*
X56759946Y-51607882D01*
X56892592Y-51607998D01*
X56796040Y-51704382D01*
X56692145Y-51954587D01*
X56691909Y-52225506D01*
X56795366Y-52475893D01*
X56986768Y-52667628D01*
X57236973Y-52771523D01*
X57507892Y-52771759D01*
X57758279Y-52668302D01*
X57950014Y-52476900D01*
X58053909Y-52226695D01*
X58054046Y-52069547D01*
X58082483Y-52026987D01*
X58117412Y-51974713D01*
X58154026Y-51790642D01*
X58154026Y-50561026D01*
X58117412Y-50376955D01*
X58099410Y-50350013D01*
X58013144Y-50220907D01*
X57490118Y-49697882D01*
X57334071Y-49593614D01*
X57150000Y-49557000D01*
X55317237Y-49557000D01*
X53901102Y-48140865D01*
X60393882Y-48140865D01*
X60497339Y-48391252D01*
X60688741Y-48582987D01*
X60938946Y-48686882D01*
X61075765Y-48687001D01*
X61241000Y-48852236D01*
X61241000Y-51816000D01*
X61277614Y-52000071D01*
X61381882Y-52156118D01*
X66715882Y-57490118D01*
X66871929Y-57594386D01*
X67056000Y-57631000D01*
X71399921Y-57631000D01*
X71495741Y-57726987D01*
X71745946Y-57830882D01*
X72016865Y-57831118D01*
X72267252Y-57727661D01*
X72458987Y-57536259D01*
X72562882Y-57286054D01*
X72563118Y-57015135D01*
X72459661Y-56764748D01*
X72268259Y-56573013D01*
X72018054Y-56469118D01*
X71747135Y-56468882D01*
X71496748Y-56572339D01*
X71399919Y-56669000D01*
X67255236Y-56669000D01*
X65108486Y-54522250D01*
X70224000Y-54522250D01*
X70224000Y-55425786D01*
X70282004Y-55565820D01*
X70389181Y-55672996D01*
X70529215Y-55731000D01*
X71332750Y-55731000D01*
X71428000Y-55635750D01*
X71428000Y-54427000D01*
X70319250Y-54427000D01*
X70224000Y-54522250D01*
X65108486Y-54522250D01*
X64077003Y-53490767D01*
X67588856Y-53490767D01*
X67707690Y-53734578D01*
X67959583Y-53981772D01*
X68286899Y-54113754D01*
X68428000Y-54033859D01*
X68428000Y-53352000D01*
X68682000Y-53352000D01*
X68682000Y-54033859D01*
X68823101Y-54113754D01*
X69150417Y-53981772D01*
X69402310Y-53734578D01*
X69521144Y-53490767D01*
X69455741Y-53352000D01*
X68682000Y-53352000D01*
X68428000Y-53352000D01*
X67654259Y-53352000D01*
X67588856Y-53490767D01*
X64077003Y-53490767D01*
X63760450Y-53174214D01*
X70224000Y-53174214D01*
X70224000Y-54077750D01*
X70319250Y-54173000D01*
X71428000Y-54173000D01*
X71428000Y-52964250D01*
X71332750Y-52869000D01*
X70529215Y-52869000D01*
X70389181Y-52927004D01*
X70282004Y-53034180D01*
X70224000Y-53174214D01*
X63760450Y-53174214D01*
X63545469Y-52959233D01*
X67588856Y-52959233D01*
X67654259Y-53098000D01*
X68428000Y-53098000D01*
X68428000Y-52416141D01*
X68682000Y-52416141D01*
X68682000Y-53098000D01*
X69455741Y-53098000D01*
X69521144Y-52959233D01*
X69402310Y-52715422D01*
X69150417Y-52468228D01*
X68823101Y-52336246D01*
X68682000Y-52416141D01*
X68428000Y-52416141D01*
X68286899Y-52336246D01*
X67959583Y-52468228D01*
X67707690Y-52715422D01*
X67588856Y-52959233D01*
X63545469Y-52959233D01*
X62203000Y-51616764D01*
X62203000Y-50040020D01*
X65110998Y-50040020D01*
X65214455Y-50290407D01*
X65405857Y-50482142D01*
X65656062Y-50586037D01*
X65780910Y-50586146D01*
X66324577Y-51129813D01*
X66248118Y-51313946D01*
X66247882Y-51584865D01*
X66351339Y-51835252D01*
X66542741Y-52026987D01*
X66792946Y-52130882D01*
X67063865Y-52131118D01*
X67314252Y-52027661D01*
X67505987Y-51836259D01*
X67609882Y-51586054D01*
X67610118Y-51315135D01*
X67506661Y-51064748D01*
X67388617Y-50946498D01*
X67373386Y-50869929D01*
X67269118Y-50713882D01*
X66473105Y-49917869D01*
X66473234Y-49770290D01*
X66369777Y-49519903D01*
X66178375Y-49328168D01*
X65928170Y-49224273D01*
X65657251Y-49224037D01*
X65406864Y-49327494D01*
X65215129Y-49518896D01*
X65111234Y-49769101D01*
X65110998Y-50040020D01*
X62203000Y-50040020D01*
X62203000Y-48653000D01*
X62200567Y-48640767D01*
X67588856Y-48640767D01*
X67707690Y-48884578D01*
X67959583Y-49131772D01*
X68286899Y-49263754D01*
X68428000Y-49183859D01*
X68428000Y-48502000D01*
X68682000Y-48502000D01*
X68682000Y-49183859D01*
X68823101Y-49263754D01*
X69150417Y-49131772D01*
X69402310Y-48884578D01*
X69521144Y-48640767D01*
X69455741Y-48502000D01*
X68682000Y-48502000D01*
X68428000Y-48502000D01*
X67654259Y-48502000D01*
X67588856Y-48640767D01*
X62200567Y-48640767D01*
X62166386Y-48468929D01*
X62062118Y-48312882D01*
X61858469Y-48109233D01*
X67588856Y-48109233D01*
X67654259Y-48248000D01*
X68428000Y-48248000D01*
X68428000Y-47566141D01*
X68682000Y-47566141D01*
X68682000Y-48248000D01*
X69455741Y-48248000D01*
X69521144Y-48109233D01*
X69402310Y-47865422D01*
X69150417Y-47618228D01*
X68912392Y-47522250D01*
X70224000Y-47522250D01*
X70224000Y-48425786D01*
X70282004Y-48565820D01*
X70389181Y-48672996D01*
X70529215Y-48731000D01*
X71332750Y-48731000D01*
X71428000Y-48635750D01*
X71428000Y-47427000D01*
X70319250Y-47427000D01*
X70224000Y-47522250D01*
X68912392Y-47522250D01*
X68823101Y-47486246D01*
X68682000Y-47566141D01*
X68428000Y-47566141D01*
X68286899Y-47486246D01*
X67959583Y-47618228D01*
X67707690Y-47865422D01*
X67588856Y-48109233D01*
X61858469Y-48109233D01*
X61756000Y-48006764D01*
X61756118Y-47871135D01*
X61652661Y-47620748D01*
X61461259Y-47429013D01*
X61211054Y-47325118D01*
X60940135Y-47324882D01*
X60689748Y-47428339D01*
X60498013Y-47619741D01*
X60394118Y-47869946D01*
X60393882Y-48140865D01*
X53901102Y-48140865D01*
X52910246Y-47150010D01*
X53075080Y-47081902D01*
X53268224Y-46889095D01*
X53372881Y-46637053D01*
X53373119Y-46364145D01*
X53294642Y-46174214D01*
X70224000Y-46174214D01*
X70224000Y-47077750D01*
X70319250Y-47173000D01*
X71428000Y-47173000D01*
X71428000Y-45964250D01*
X71332750Y-45869000D01*
X70529215Y-45869000D01*
X70389181Y-45927004D01*
X70282004Y-46034180D01*
X70224000Y-46174214D01*
X53294642Y-46174214D01*
X53268902Y-46111920D01*
X53076095Y-45918776D01*
X52824053Y-45814119D01*
X52551145Y-45813881D01*
X52298920Y-45918098D01*
X52105776Y-46110905D01*
X52088338Y-46152901D01*
X52012661Y-45969748D01*
X51821259Y-45778013D01*
X51571054Y-45674118D01*
X51300135Y-45673882D01*
X51049748Y-45777339D01*
X50927000Y-45899874D01*
X50927000Y-42535855D01*
X56100881Y-42535855D01*
X56205098Y-42788080D01*
X56397905Y-42981224D01*
X56649947Y-43085881D01*
X56922855Y-43086119D01*
X57175080Y-42981902D01*
X57368224Y-42789095D01*
X57472881Y-42537053D01*
X57473119Y-42264145D01*
X57368902Y-42011920D01*
X57176095Y-41818776D01*
X56924053Y-41714119D01*
X56651145Y-41713881D01*
X56398920Y-41818098D01*
X56205776Y-42010905D01*
X56101119Y-42262947D01*
X56100881Y-42535855D01*
X50927000Y-42535855D01*
X50927000Y-40461000D01*
X67489000Y-40461000D01*
X67489000Y-41910000D01*
M02*
