G04 #@! TF.FileFunction,Legend,Top*
%FSLAX46Y46*%
G04 Gerber Fmt 4.6, Leading zero omitted, Abs format (unit mm)*
G04 Created by KiCad (PCBNEW 4.0.5+dfsg1-4~bpo8+1) date Mon Mar  5 20:33:18 2018*
%MOMM*%
%LPD*%
G01*
G04 APERTURE LIST*
%ADD10C,0.100000*%
%ADD11C,0.200000*%
%ADD12C,0.120000*%
%ADD13C,0.150000*%
G04 APERTURE END LIST*
D10*
D11*
X29845096Y-56650000D02*
X29749858Y-56602381D01*
X29607001Y-56602381D01*
X29464143Y-56650000D01*
X29368905Y-56745238D01*
X29321286Y-56840476D01*
X29273667Y-57030952D01*
X29273667Y-57173810D01*
X29321286Y-57364286D01*
X29368905Y-57459524D01*
X29464143Y-57554762D01*
X29607001Y-57602381D01*
X29702239Y-57602381D01*
X29845096Y-57554762D01*
X29892715Y-57507143D01*
X29892715Y-57173810D01*
X29702239Y-57173810D01*
X30321286Y-57602381D02*
X30321286Y-56602381D01*
X30892715Y-57602381D01*
X30892715Y-56602381D01*
X31368905Y-57602381D02*
X31368905Y-56602381D01*
X31607000Y-56602381D01*
X31749858Y-56650000D01*
X31845096Y-56745238D01*
X31892715Y-56840476D01*
X31940334Y-57030952D01*
X31940334Y-57173810D01*
X31892715Y-57364286D01*
X31845096Y-57459524D01*
X31749858Y-57554762D01*
X31607000Y-57602381D01*
X31368905Y-57602381D01*
X30059381Y-54967143D02*
X30011762Y-55014762D01*
X29868905Y-55062381D01*
X29773667Y-55062381D01*
X29630809Y-55014762D01*
X29535571Y-54919524D01*
X29487952Y-54824286D01*
X29440333Y-54633810D01*
X29440333Y-54490952D01*
X29487952Y-54300476D01*
X29535571Y-54205238D01*
X29630809Y-54110000D01*
X29773667Y-54062381D01*
X29868905Y-54062381D01*
X30011762Y-54110000D01*
X30059381Y-54157619D01*
X30345095Y-54062381D02*
X30916524Y-54062381D01*
X30630809Y-55062381D02*
X30630809Y-54062381D01*
X31202238Y-55014762D02*
X31345095Y-55062381D01*
X31583191Y-55062381D01*
X31678429Y-55014762D01*
X31726048Y-54967143D01*
X31773667Y-54871905D01*
X31773667Y-54776667D01*
X31726048Y-54681429D01*
X31678429Y-54633810D01*
X31583191Y-54586190D01*
X31392714Y-54538571D01*
X31297476Y-54490952D01*
X31249857Y-54443333D01*
X31202238Y-54348095D01*
X31202238Y-54252857D01*
X31249857Y-54157619D01*
X31297476Y-54110000D01*
X31392714Y-54062381D01*
X31630810Y-54062381D01*
X31773667Y-54110000D01*
X29273667Y-51522381D02*
X29607000Y-52522381D01*
X29940334Y-51522381D01*
X30845096Y-52427143D02*
X30797477Y-52474762D01*
X30654620Y-52522381D01*
X30559382Y-52522381D01*
X30416524Y-52474762D01*
X30321286Y-52379524D01*
X30273667Y-52284286D01*
X30226048Y-52093810D01*
X30226048Y-51950952D01*
X30273667Y-51760476D01*
X30321286Y-51665238D01*
X30416524Y-51570000D01*
X30559382Y-51522381D01*
X30654620Y-51522381D01*
X30797477Y-51570000D01*
X30845096Y-51617619D01*
X31845096Y-52427143D02*
X31797477Y-52474762D01*
X31654620Y-52522381D01*
X31559382Y-52522381D01*
X31416524Y-52474762D01*
X31321286Y-52379524D01*
X31273667Y-52284286D01*
X31226048Y-52093810D01*
X31226048Y-51950952D01*
X31273667Y-51760476D01*
X31321286Y-51665238D01*
X31416524Y-51570000D01*
X31559382Y-51522381D01*
X31654620Y-51522381D01*
X31797477Y-51570000D01*
X31845096Y-51617619D01*
X29845095Y-48982381D02*
X30416524Y-48982381D01*
X30130809Y-49982381D02*
X30130809Y-48982381D01*
X30654619Y-48982381D02*
X31321286Y-49982381D01*
X31321286Y-48982381D02*
X30654619Y-49982381D01*
X30440334Y-47442381D02*
X30107000Y-46966190D01*
X29868905Y-47442381D02*
X29868905Y-46442381D01*
X30249858Y-46442381D01*
X30345096Y-46490000D01*
X30392715Y-46537619D01*
X30440334Y-46632857D01*
X30440334Y-46775714D01*
X30392715Y-46870952D01*
X30345096Y-46918571D01*
X30249858Y-46966190D01*
X29868905Y-46966190D01*
X30773667Y-46442381D02*
X31440334Y-47442381D01*
X31440334Y-46442381D02*
X30773667Y-47442381D01*
X30059381Y-44902381D02*
X29726047Y-44426190D01*
X29487952Y-44902381D02*
X29487952Y-43902381D01*
X29868905Y-43902381D01*
X29964143Y-43950000D01*
X30011762Y-43997619D01*
X30059381Y-44092857D01*
X30059381Y-44235714D01*
X30011762Y-44330952D01*
X29964143Y-44378571D01*
X29868905Y-44426190D01*
X29487952Y-44426190D01*
X30345095Y-43902381D02*
X30916524Y-43902381D01*
X30630809Y-44902381D02*
X30630809Y-43902381D01*
X31202238Y-44854762D02*
X31345095Y-44902381D01*
X31583191Y-44902381D01*
X31678429Y-44854762D01*
X31726048Y-44807143D01*
X31773667Y-44711905D01*
X31773667Y-44616667D01*
X31726048Y-44521429D01*
X31678429Y-44473810D01*
X31583191Y-44426190D01*
X31392714Y-44378571D01*
X31297476Y-44330952D01*
X31249857Y-44283333D01*
X31202238Y-44188095D01*
X31202238Y-44092857D01*
X31249857Y-43997619D01*
X31297476Y-43950000D01*
X31392714Y-43902381D01*
X31630810Y-43902381D01*
X31773667Y-43950000D01*
D12*
X39669000Y-54872000D02*
X39669000Y-55872000D01*
X38309000Y-55872000D02*
X38309000Y-54872000D01*
X40024000Y-52105000D02*
X40724000Y-52105000D01*
X40724000Y-53305000D02*
X40024000Y-53305000D01*
X42129000Y-42830000D02*
X42129000Y-43530000D01*
X40929000Y-43530000D02*
X40929000Y-42830000D01*
D10*
X68415000Y-56150000D02*
X70015000Y-56150000D01*
X68415000Y-58150000D02*
X70015000Y-58150000D01*
D12*
X63846000Y-45751000D02*
X63846000Y-46451000D01*
X62646000Y-46451000D02*
X62646000Y-45751000D01*
X62449000Y-45751000D02*
X62449000Y-46451000D01*
X61249000Y-46451000D02*
X61249000Y-45751000D01*
X66767000Y-45751000D02*
X66767000Y-46451000D01*
X65567000Y-46451000D02*
X65567000Y-45751000D01*
X65370000Y-45751000D02*
X65370000Y-46451000D01*
X64170000Y-46451000D02*
X64170000Y-45751000D01*
X51527000Y-43973000D02*
X51527000Y-44673000D01*
X50327000Y-44673000D02*
X50327000Y-43973000D01*
X51527000Y-51593000D02*
X51527000Y-52293000D01*
X50327000Y-52293000D02*
X50327000Y-51593000D01*
X38817000Y-42791000D02*
X38817000Y-41791000D01*
X40177000Y-41791000D02*
X40177000Y-42791000D01*
X54237000Y-40468000D02*
X55237000Y-40468000D01*
X55237000Y-41828000D02*
X54237000Y-41828000D01*
X59444000Y-59772000D02*
X60444000Y-59772000D01*
X60444000Y-61132000D02*
X59444000Y-61132000D01*
X54237000Y-59772000D02*
X55237000Y-59772000D01*
X55237000Y-61132000D02*
X54237000Y-61132000D01*
X59518000Y-46601000D02*
X59518000Y-45601000D01*
X60878000Y-45601000D02*
X60878000Y-46601000D01*
X54237000Y-45750000D02*
X55237000Y-45750000D01*
X55237000Y-45750000D02*
X55237000Y-43650000D01*
X54237000Y-45750000D02*
X54237000Y-43650000D01*
X60444000Y-55850000D02*
X59444000Y-55850000D01*
X59444000Y-55850000D02*
X59444000Y-57950000D01*
X60444000Y-55850000D02*
X60444000Y-57950000D01*
X55237000Y-55850000D02*
X54237000Y-55850000D01*
X54237000Y-55850000D02*
X54237000Y-57950000D01*
X55237000Y-55850000D02*
X55237000Y-57950000D01*
D10*
X61425000Y-52400000D02*
X61925000Y-52400000D01*
X61925000Y-49200000D02*
X61925000Y-49700000D01*
X61425000Y-49200000D02*
X61925000Y-49200000D01*
X58725000Y-49200000D02*
X59225000Y-49200000D01*
X58725000Y-49700000D02*
X58725000Y-49200000D01*
X58725000Y-52400000D02*
X58725000Y-51900000D01*
X59225000Y-52400000D02*
X58725000Y-52400000D01*
X39870000Y-48630000D02*
X38870000Y-48630000D01*
X40170000Y-50430000D02*
X38870000Y-50430000D01*
X64905000Y-52335000D02*
X65905000Y-52335000D01*
X64605000Y-50535000D02*
X65905000Y-50535000D01*
D13*
X45593095Y-42942381D02*
X45593095Y-43751905D01*
X45640714Y-43847143D01*
X45688333Y-43894762D01*
X45783571Y-43942381D01*
X45974048Y-43942381D01*
X46069286Y-43894762D01*
X46116905Y-43847143D01*
X46164524Y-43751905D01*
X46164524Y-42942381D01*
X46593095Y-43037619D02*
X46640714Y-42990000D01*
X46735952Y-42942381D01*
X46974048Y-42942381D01*
X47069286Y-42990000D01*
X47116905Y-43037619D01*
X47164524Y-43132857D01*
X47164524Y-43228095D01*
X47116905Y-43370952D01*
X46545476Y-43942381D01*
X47164524Y-43942381D01*
X45593095Y-57618381D02*
X45593095Y-58427905D01*
X45640714Y-58523143D01*
X45688333Y-58570762D01*
X45783571Y-58618381D01*
X45974048Y-58618381D01*
X46069286Y-58570762D01*
X46116905Y-58523143D01*
X46164524Y-58427905D01*
X46164524Y-57618381D01*
X47164524Y-58618381D02*
X46593095Y-58618381D01*
X46878809Y-58618381D02*
X46878809Y-57618381D01*
X46783571Y-57761238D01*
X46688333Y-57856476D01*
X46593095Y-57904095D01*
X38822334Y-57856381D02*
X38489000Y-57380190D01*
X38250905Y-57856381D02*
X38250905Y-56856381D01*
X38631858Y-56856381D01*
X38727096Y-56904000D01*
X38774715Y-56951619D01*
X38822334Y-57046857D01*
X38822334Y-57189714D01*
X38774715Y-57284952D01*
X38727096Y-57332571D01*
X38631858Y-57380190D01*
X38250905Y-57380190D01*
X39155667Y-56856381D02*
X39774715Y-56856381D01*
X39441381Y-57237333D01*
X39584239Y-57237333D01*
X39679477Y-57284952D01*
X39727096Y-57332571D01*
X39774715Y-57427810D01*
X39774715Y-57665905D01*
X39727096Y-57761143D01*
X39679477Y-57808762D01*
X39584239Y-57856381D01*
X39298524Y-57856381D01*
X39203286Y-57808762D01*
X39155667Y-57761143D01*
X39838334Y-51792143D02*
X39790715Y-51839762D01*
X39647858Y-51887381D01*
X39552620Y-51887381D01*
X39409762Y-51839762D01*
X39314524Y-51744524D01*
X39266905Y-51649286D01*
X39219286Y-51458810D01*
X39219286Y-51315952D01*
X39266905Y-51125476D01*
X39314524Y-51030238D01*
X39409762Y-50935000D01*
X39552620Y-50887381D01*
X39647858Y-50887381D01*
X39790715Y-50935000D01*
X39838334Y-50982619D01*
X40219286Y-50982619D02*
X40266905Y-50935000D01*
X40362143Y-50887381D01*
X40600239Y-50887381D01*
X40695477Y-50935000D01*
X40743096Y-50982619D01*
X40790715Y-51077857D01*
X40790715Y-51173095D01*
X40743096Y-51315952D01*
X40171667Y-51887381D01*
X40790715Y-51887381D01*
X35710905Y-42616381D02*
X35710905Y-41616381D01*
X36091858Y-41616381D01*
X36187096Y-41664000D01*
X36234715Y-41711619D01*
X36282334Y-41806857D01*
X36282334Y-41949714D01*
X36234715Y-42044952D01*
X36187096Y-42092571D01*
X36091858Y-42140190D01*
X35710905Y-42140190D01*
X37234715Y-42616381D02*
X36663286Y-42616381D01*
X36949000Y-42616381D02*
X36949000Y-41616381D01*
X36853762Y-41759238D01*
X36758524Y-41854476D01*
X36663286Y-41902095D01*
X41362334Y-41441643D02*
X41314715Y-41489262D01*
X41171858Y-41536881D01*
X41076620Y-41536881D01*
X40933762Y-41489262D01*
X40838524Y-41394024D01*
X40790905Y-41298786D01*
X40743286Y-41108310D01*
X40743286Y-40965452D01*
X40790905Y-40774976D01*
X40838524Y-40679738D01*
X40933762Y-40584500D01*
X41076620Y-40536881D01*
X41171858Y-40536881D01*
X41314715Y-40584500D01*
X41362334Y-40632119D01*
X42314715Y-41536881D02*
X41743286Y-41536881D01*
X42029000Y-41536881D02*
X42029000Y-40536881D01*
X41933762Y-40679738D01*
X41838524Y-40774976D01*
X41743286Y-40822595D01*
X68881667Y-58828571D02*
X68548333Y-58828571D01*
X68548333Y-59352381D02*
X68548333Y-58352381D01*
X69024524Y-58352381D01*
X69929286Y-59352381D02*
X69357857Y-59352381D01*
X69643571Y-59352381D02*
X69643571Y-58352381D01*
X69548333Y-58495238D01*
X69453095Y-58590476D01*
X69357857Y-58638095D01*
X63603143Y-43092666D02*
X63650762Y-43140285D01*
X63698381Y-43283142D01*
X63698381Y-43378380D01*
X63650762Y-43521238D01*
X63555524Y-43616476D01*
X63460286Y-43664095D01*
X63269810Y-43711714D01*
X63126952Y-43711714D01*
X62936476Y-43664095D01*
X62841238Y-43616476D01*
X62746000Y-43521238D01*
X62698381Y-43378380D01*
X62698381Y-43283142D01*
X62746000Y-43140285D01*
X62793619Y-43092666D01*
X62698381Y-42759333D02*
X62698381Y-42140285D01*
X63079333Y-42473619D01*
X63079333Y-42330761D01*
X63126952Y-42235523D01*
X63174571Y-42187904D01*
X63269810Y-42140285D01*
X63507905Y-42140285D01*
X63603143Y-42187904D01*
X63650762Y-42235523D01*
X63698381Y-42330761D01*
X63698381Y-42616476D01*
X63650762Y-42711714D01*
X63603143Y-42759333D01*
X62206143Y-43092666D02*
X62253762Y-43140285D01*
X62301381Y-43283142D01*
X62301381Y-43378380D01*
X62253762Y-43521238D01*
X62158524Y-43616476D01*
X62063286Y-43664095D01*
X61872810Y-43711714D01*
X61729952Y-43711714D01*
X61539476Y-43664095D01*
X61444238Y-43616476D01*
X61349000Y-43521238D01*
X61301381Y-43378380D01*
X61301381Y-43283142D01*
X61349000Y-43140285D01*
X61396619Y-43092666D01*
X61634714Y-42235523D02*
X62301381Y-42235523D01*
X61253762Y-42473619D02*
X61968048Y-42711714D01*
X61968048Y-42092666D01*
X66524143Y-43092666D02*
X66571762Y-43140285D01*
X66619381Y-43283142D01*
X66619381Y-43378380D01*
X66571762Y-43521238D01*
X66476524Y-43616476D01*
X66381286Y-43664095D01*
X66190810Y-43711714D01*
X66047952Y-43711714D01*
X65857476Y-43664095D01*
X65762238Y-43616476D01*
X65667000Y-43521238D01*
X65619381Y-43378380D01*
X65619381Y-43283142D01*
X65667000Y-43140285D01*
X65714619Y-43092666D01*
X65619381Y-42187904D02*
X65619381Y-42664095D01*
X66095571Y-42711714D01*
X66047952Y-42664095D01*
X66000333Y-42568857D01*
X66000333Y-42330761D01*
X66047952Y-42235523D01*
X66095571Y-42187904D01*
X66190810Y-42140285D01*
X66428905Y-42140285D01*
X66524143Y-42187904D01*
X66571762Y-42235523D01*
X66619381Y-42330761D01*
X66619381Y-42568857D01*
X66571762Y-42664095D01*
X66524143Y-42711714D01*
X65127143Y-43092666D02*
X65174762Y-43140285D01*
X65222381Y-43283142D01*
X65222381Y-43378380D01*
X65174762Y-43521238D01*
X65079524Y-43616476D01*
X64984286Y-43664095D01*
X64793810Y-43711714D01*
X64650952Y-43711714D01*
X64460476Y-43664095D01*
X64365238Y-43616476D01*
X64270000Y-43521238D01*
X64222381Y-43378380D01*
X64222381Y-43283142D01*
X64270000Y-43140285D01*
X64317619Y-43092666D01*
X64222381Y-42235523D02*
X64222381Y-42426000D01*
X64270000Y-42521238D01*
X64317619Y-42568857D01*
X64460476Y-42664095D01*
X64650952Y-42711714D01*
X65031905Y-42711714D01*
X65127143Y-42664095D01*
X65174762Y-42616476D01*
X65222381Y-42521238D01*
X65222381Y-42330761D01*
X65174762Y-42235523D01*
X65127143Y-42187904D01*
X65031905Y-42140285D01*
X64793810Y-42140285D01*
X64698571Y-42187904D01*
X64650952Y-42235523D01*
X64603333Y-42330761D01*
X64603333Y-42521238D01*
X64650952Y-42616476D01*
X64698571Y-42664095D01*
X64793810Y-42711714D01*
X52808143Y-44477666D02*
X52855762Y-44525285D01*
X52903381Y-44668142D01*
X52903381Y-44763380D01*
X52855762Y-44906238D01*
X52760524Y-45001476D01*
X52665286Y-45049095D01*
X52474810Y-45096714D01*
X52331952Y-45096714D01*
X52141476Y-45049095D01*
X52046238Y-45001476D01*
X51951000Y-44906238D01*
X51903381Y-44763380D01*
X51903381Y-44668142D01*
X51951000Y-44525285D01*
X51998619Y-44477666D01*
X51903381Y-44144333D02*
X51903381Y-43477666D01*
X52903381Y-43906238D01*
X52681143Y-52732666D02*
X52728762Y-52780285D01*
X52776381Y-52923142D01*
X52776381Y-53018380D01*
X52728762Y-53161238D01*
X52633524Y-53256476D01*
X52538286Y-53304095D01*
X52347810Y-53351714D01*
X52204952Y-53351714D01*
X52014476Y-53304095D01*
X51919238Y-53256476D01*
X51824000Y-53161238D01*
X51776381Y-53018380D01*
X51776381Y-52923142D01*
X51824000Y-52780285D01*
X51871619Y-52732666D01*
X52204952Y-52161238D02*
X52157333Y-52256476D01*
X52109714Y-52304095D01*
X52014476Y-52351714D01*
X51966857Y-52351714D01*
X51871619Y-52304095D01*
X51824000Y-52256476D01*
X51776381Y-52161238D01*
X51776381Y-51970761D01*
X51824000Y-51875523D01*
X51871619Y-51827904D01*
X51966857Y-51780285D01*
X52014476Y-51780285D01*
X52109714Y-51827904D01*
X52157333Y-51875523D01*
X52204952Y-51970761D01*
X52204952Y-52161238D01*
X52252571Y-52256476D01*
X52300190Y-52304095D01*
X52395429Y-52351714D01*
X52585905Y-52351714D01*
X52681143Y-52304095D01*
X52728762Y-52256476D01*
X52776381Y-52161238D01*
X52776381Y-51970761D01*
X52728762Y-51875523D01*
X52681143Y-51827904D01*
X52585905Y-51780285D01*
X52395429Y-51780285D01*
X52300190Y-51827904D01*
X52252571Y-51875523D01*
X52204952Y-51970761D01*
X39330334Y-44711881D02*
X38997000Y-44235690D01*
X38758905Y-44711881D02*
X38758905Y-43711881D01*
X39139858Y-43711881D01*
X39235096Y-43759500D01*
X39282715Y-43807119D01*
X39330334Y-43902357D01*
X39330334Y-44045214D01*
X39282715Y-44140452D01*
X39235096Y-44188071D01*
X39139858Y-44235690D01*
X38758905Y-44235690D01*
X40282715Y-44711881D02*
X39711286Y-44711881D01*
X39997000Y-44711881D02*
X39997000Y-43711881D01*
X39901762Y-43854738D01*
X39806524Y-43949976D01*
X39711286Y-43997595D01*
X52284334Y-41600381D02*
X51951000Y-41124190D01*
X51712905Y-41600381D02*
X51712905Y-40600381D01*
X52093858Y-40600381D01*
X52189096Y-40648000D01*
X52236715Y-40695619D01*
X52284334Y-40790857D01*
X52284334Y-40933714D01*
X52236715Y-41028952D01*
X52189096Y-41076571D01*
X52093858Y-41124190D01*
X51712905Y-41124190D01*
X52665286Y-40695619D02*
X52712905Y-40648000D01*
X52808143Y-40600381D01*
X53046239Y-40600381D01*
X53141477Y-40648000D01*
X53189096Y-40695619D01*
X53236715Y-40790857D01*
X53236715Y-40886095D01*
X53189096Y-41028952D01*
X52617667Y-41600381D01*
X53236715Y-41600381D01*
X62063334Y-60904381D02*
X61730000Y-60428190D01*
X61491905Y-60904381D02*
X61491905Y-59904381D01*
X61872858Y-59904381D01*
X61968096Y-59952000D01*
X62015715Y-59999619D01*
X62063334Y-60094857D01*
X62063334Y-60237714D01*
X62015715Y-60332952D01*
X61968096Y-60380571D01*
X61872858Y-60428190D01*
X61491905Y-60428190D01*
X62920477Y-60237714D02*
X62920477Y-60904381D01*
X62682381Y-59856762D02*
X62444286Y-60571048D01*
X63063334Y-60571048D01*
X52284334Y-60904381D02*
X51951000Y-60428190D01*
X51712905Y-60904381D02*
X51712905Y-59904381D01*
X52093858Y-59904381D01*
X52189096Y-59952000D01*
X52236715Y-59999619D01*
X52284334Y-60094857D01*
X52284334Y-60237714D01*
X52236715Y-60332952D01*
X52189096Y-60380571D01*
X52093858Y-60428190D01*
X51712905Y-60428190D01*
X53189096Y-59904381D02*
X52712905Y-59904381D01*
X52665286Y-60380571D01*
X52712905Y-60332952D01*
X52808143Y-60285333D01*
X53046239Y-60285333D01*
X53141477Y-60332952D01*
X53189096Y-60380571D01*
X53236715Y-60475810D01*
X53236715Y-60713905D01*
X53189096Y-60809143D01*
X53141477Y-60856762D01*
X53046239Y-60904381D01*
X52808143Y-60904381D01*
X52712905Y-60856762D01*
X52665286Y-60809143D01*
X60650381Y-43981666D02*
X60174190Y-44315000D01*
X60650381Y-44553095D02*
X59650381Y-44553095D01*
X59650381Y-44172142D01*
X59698000Y-44076904D01*
X59745619Y-44029285D01*
X59840857Y-43981666D01*
X59983714Y-43981666D01*
X60078952Y-44029285D01*
X60126571Y-44076904D01*
X60174190Y-44172142D01*
X60174190Y-44553095D01*
X59650381Y-43124523D02*
X59650381Y-43315000D01*
X59698000Y-43410238D01*
X59745619Y-43457857D01*
X59888476Y-43553095D01*
X60078952Y-43600714D01*
X60459905Y-43600714D01*
X60555143Y-43553095D01*
X60602762Y-43505476D01*
X60650381Y-43410238D01*
X60650381Y-43219761D01*
X60602762Y-43124523D01*
X60555143Y-43076904D01*
X60459905Y-43029285D01*
X60221810Y-43029285D01*
X60126571Y-43076904D01*
X60078952Y-43124523D01*
X60031333Y-43219761D01*
X60031333Y-43410238D01*
X60078952Y-43505476D01*
X60126571Y-43553095D01*
X60221810Y-43600714D01*
X56459381Y-44743595D02*
X55459381Y-44743595D01*
X55459381Y-44505500D01*
X55507000Y-44362642D01*
X55602238Y-44267404D01*
X55697476Y-44219785D01*
X55887952Y-44172166D01*
X56030810Y-44172166D01*
X56221286Y-44219785D01*
X56316524Y-44267404D01*
X56411762Y-44362642D01*
X56459381Y-44505500D01*
X56459381Y-44743595D01*
X56459381Y-43219785D02*
X56459381Y-43791214D01*
X56459381Y-43505500D02*
X55459381Y-43505500D01*
X55602238Y-43600738D01*
X55697476Y-43695976D01*
X55745095Y-43791214D01*
X61646381Y-57888095D02*
X60646381Y-57888095D01*
X60646381Y-57650000D01*
X60694000Y-57507142D01*
X60789238Y-57411904D01*
X60884476Y-57364285D01*
X61074952Y-57316666D01*
X61217810Y-57316666D01*
X61408286Y-57364285D01*
X61503524Y-57411904D01*
X61598762Y-57507142D01*
X61646381Y-57650000D01*
X61646381Y-57888095D01*
X60741619Y-56935714D02*
X60694000Y-56888095D01*
X60646381Y-56792857D01*
X60646381Y-56554761D01*
X60694000Y-56459523D01*
X60741619Y-56411904D01*
X60836857Y-56364285D01*
X60932095Y-56364285D01*
X61074952Y-56411904D01*
X61646381Y-56983333D01*
X61646381Y-56364285D01*
X56439381Y-57888095D02*
X55439381Y-57888095D01*
X55439381Y-57650000D01*
X55487000Y-57507142D01*
X55582238Y-57411904D01*
X55677476Y-57364285D01*
X55867952Y-57316666D01*
X56010810Y-57316666D01*
X56201286Y-57364285D01*
X56296524Y-57411904D01*
X56391762Y-57507142D01*
X56439381Y-57650000D01*
X56439381Y-57888095D01*
X55439381Y-56983333D02*
X55439381Y-56364285D01*
X55820333Y-56697619D01*
X55820333Y-56554761D01*
X55867952Y-56459523D01*
X55915571Y-56411904D01*
X56010810Y-56364285D01*
X56248905Y-56364285D01*
X56344143Y-56411904D01*
X56391762Y-56459523D01*
X56439381Y-56554761D01*
X56439381Y-56840476D01*
X56391762Y-56935714D01*
X56344143Y-56983333D01*
X68476905Y-46934381D02*
X68476905Y-45934381D01*
X68857858Y-45934381D01*
X68953096Y-45982000D01*
X69000715Y-46029619D01*
X69048334Y-46124857D01*
X69048334Y-46267714D01*
X69000715Y-46362952D01*
X68953096Y-46410571D01*
X68857858Y-46458190D01*
X68476905Y-46458190D01*
X69429286Y-46029619D02*
X69476905Y-45982000D01*
X69572143Y-45934381D01*
X69810239Y-45934381D01*
X69905477Y-45982000D01*
X69953096Y-46029619D01*
X70000715Y-46124857D01*
X70000715Y-46220095D01*
X69953096Y-46362952D01*
X69381667Y-46934381D01*
X70000715Y-46934381D01*
X59563095Y-53252381D02*
X59563095Y-54061905D01*
X59610714Y-54157143D01*
X59658333Y-54204762D01*
X59753571Y-54252381D01*
X59944048Y-54252381D01*
X60039286Y-54204762D01*
X60086905Y-54157143D01*
X60134524Y-54061905D01*
X60134524Y-53252381D01*
X60515476Y-53252381D02*
X61134524Y-53252381D01*
X60801190Y-53633333D01*
X60944048Y-53633333D01*
X61039286Y-53680952D01*
X61086905Y-53728571D01*
X61134524Y-53823810D01*
X61134524Y-54061905D01*
X61086905Y-54157143D01*
X61039286Y-54204762D01*
X60944048Y-54252381D01*
X60658333Y-54252381D01*
X60563095Y-54204762D01*
X60515476Y-54157143D01*
X38608095Y-47232381D02*
X38608095Y-48041905D01*
X38655714Y-48137143D01*
X38703333Y-48184762D01*
X38798571Y-48232381D01*
X38989048Y-48232381D01*
X39084286Y-48184762D01*
X39131905Y-48137143D01*
X39179524Y-48041905D01*
X39179524Y-47232381D01*
X40084286Y-47565714D02*
X40084286Y-48232381D01*
X39846190Y-47184762D02*
X39608095Y-47899048D01*
X40227143Y-47899048D01*
X64643095Y-52637381D02*
X64643095Y-53446905D01*
X64690714Y-53542143D01*
X64738333Y-53589762D01*
X64833571Y-53637381D01*
X65024048Y-53637381D01*
X65119286Y-53589762D01*
X65166905Y-53542143D01*
X65214524Y-53446905D01*
X65214524Y-52637381D01*
X66166905Y-52637381D02*
X65690714Y-52637381D01*
X65643095Y-53113571D01*
X65690714Y-53065952D01*
X65785952Y-53018333D01*
X66024048Y-53018333D01*
X66119286Y-53065952D01*
X66166905Y-53113571D01*
X66214524Y-53208810D01*
X66214524Y-53446905D01*
X66166905Y-53542143D01*
X66119286Y-53589762D01*
X66024048Y-53637381D01*
X65785952Y-53637381D01*
X65690714Y-53589762D01*
X65643095Y-53542143D01*
M02*
