M48
;DRILL file {KiCad 4.0.5+dfsg1-4~bpo8+1} date Sun Mar  4 19:39:16 2018
;FORMAT={-:-/ absolute / metric / decimal}
FMAT,2
METRIC,TZ
T1C0.400
T2C0.650
T3C0.825
T4C1.000
T5C0.610
%
G90
G05
M71
T1
X35.877Y-41.529
X40.513Y-43.942
X40.894Y-50.038
X41.021Y-54.356
X41.148Y-55.626
X41.402Y-51.308
X41.656Y-46.355
X41.656Y-47.625
X51.435Y-42.545
X51.435Y-46.355
X51.435Y-47.625
X51.435Y-48.895
X51.435Y-50.038
X51.435Y-53.975
X51.435Y-55.245
X51.435Y-56.515
X55.118Y-53.34
X55.753Y-45.212
X55.88Y-53.975
X56.896Y-50.927
X57.373Y-52.091
X57.658Y-49.022
X60.325Y-50.8
X61.075Y-48.006
X61.849Y-44.323
X62.992Y-51.435
X63.246Y-44.323
X64.77Y-44.323
X65.792Y-49.905
X66.167Y-44.323
X66.929Y-49.53
X66.929Y-51.45
X71.882Y-57.15
T4
X36.449Y-44.45
X36.449Y-46.99
X36.449Y-49.53
X36.449Y-52.07
X36.449Y-54.61
X36.449Y-57.15
T5
X52.687Y-46.5
X52.687Y-59.2
X56.787Y-42.4
X56.787Y-55.1
X57.894Y-59.2
X61.994Y-55.1
T2
X68.455Y-48.375G85X68.655Y-48.375
G05
X68.455Y-53.225G85X68.655Y-53.225
G05
T3
X71.218Y-47.3G85X71.892Y-47.3
G05
X71.218Y-54.3G85X71.892Y-54.3
G05
T0
M30
