G04 #@! TF.FileFunction,Soldermask,Top*
%FSLAX46Y46*%
G04 Gerber Fmt 4.6, Leading zero omitted, Abs format (unit mm)*
G04 Created by KiCad (PCBNEW 4.0.5+dfsg1-4~bpo8+1) date Mon Mar  5 20:33:18 2018*
%MOMM*%
%LPD*%
G01*
G04 APERTURE LIST*
%ADD10C,0.100000*%
%ADD11R,1.550000X0.600000*%
%ADD12R,0.900000X0.500000*%
%ADD13R,0.800000X0.750000*%
%ADD14R,1.700000X1.700000*%
%ADD15O,1.700000X1.700000*%
%ADD16R,0.750000X0.800000*%
%ADD17R,1.000000X1.900000*%
%ADD18R,0.500000X0.900000*%
%ADD19R,0.800000X0.800000*%
%ADD20R,1.950000X0.400000*%
%ADD21O,1.250000X1.050000*%
%ADD22R,1.900000X2.100000*%
%ADD23R,1.900000X1.800000*%
%ADD24R,0.350000X0.350000*%
%ADD25R,0.900000X0.300000*%
%ADD26R,0.300000X0.900000*%
%ADD27R,1.800000X1.800000*%
%ADD28C,0.610000*%
%ADD29R,0.450000X0.250000*%
%ADD30R,0.700000X0.250000*%
%ADD31R,0.500000X1.000000*%
G04 APERTURE END LIST*
D10*
D11*
X43655000Y-45085000D03*
X43655000Y-46355000D03*
X43655000Y-47625000D03*
X43655000Y-48895000D03*
X49055000Y-48895000D03*
X49055000Y-47625000D03*
X49055000Y-46355000D03*
X49055000Y-45085000D03*
X43655000Y-52705000D03*
X43655000Y-53975000D03*
X43655000Y-55245000D03*
X43655000Y-56515000D03*
X49055000Y-56515000D03*
X49055000Y-55245000D03*
X49055000Y-53975000D03*
X49055000Y-52705000D03*
D12*
X38989000Y-56122000D03*
X38989000Y-54622000D03*
D13*
X39624000Y-52705000D03*
X41124000Y-52705000D03*
D14*
X36449000Y-57150000D03*
D15*
X36449000Y-54610000D03*
X36449000Y-52070000D03*
X36449000Y-49530000D03*
X36449000Y-46990000D03*
X36449000Y-44450000D03*
D16*
X41529000Y-42430000D03*
X41529000Y-43930000D03*
D17*
X67715000Y-57150000D03*
X70715000Y-57150000D03*
D16*
X63246000Y-45351000D03*
X63246000Y-46851000D03*
X61849000Y-45351000D03*
X61849000Y-46851000D03*
X66167000Y-45351000D03*
X66167000Y-46851000D03*
X64770000Y-45351000D03*
X64770000Y-46851000D03*
X50927000Y-43573000D03*
X50927000Y-45073000D03*
X50927000Y-51193000D03*
X50927000Y-52693000D03*
D12*
X39497000Y-41541000D03*
X39497000Y-43041000D03*
D18*
X55487000Y-41148000D03*
X53987000Y-41148000D03*
X60694000Y-60452000D03*
X59194000Y-60452000D03*
X55487000Y-60452000D03*
X53987000Y-60452000D03*
D12*
X60198000Y-45351000D03*
X60198000Y-46851000D03*
D19*
X54737000Y-43650000D03*
X54737000Y-45250000D03*
X59944000Y-57950000D03*
X59944000Y-56350000D03*
X54737000Y-57950000D03*
X54737000Y-56350000D03*
D20*
X68580000Y-52100000D03*
X68580000Y-51450000D03*
X68580000Y-50800000D03*
X68580000Y-50150000D03*
X68580000Y-49500000D03*
D21*
X68555000Y-53225000D03*
X68555000Y-48375000D03*
D22*
X71555000Y-47300000D03*
X71555000Y-54300000D03*
D23*
X71555000Y-51950000D03*
X71555000Y-49650000D03*
D24*
X61575000Y-52050000D03*
D25*
X61875000Y-51550000D03*
X61875000Y-51050000D03*
X61875000Y-50550000D03*
X61875000Y-50050000D03*
D24*
X61575000Y-49550000D03*
D26*
X61075000Y-49250000D03*
X60575000Y-49250000D03*
X60075000Y-49250000D03*
X59575000Y-49250000D03*
D24*
X59075000Y-49550000D03*
D25*
X58775000Y-50050000D03*
X58775000Y-50550000D03*
X58775000Y-51050000D03*
X58775000Y-51550000D03*
D24*
X59075000Y-52050000D03*
D26*
X59575000Y-52350000D03*
X60075000Y-52350000D03*
X60575000Y-52350000D03*
X61075000Y-52350000D03*
D27*
X60325000Y-50800000D03*
D28*
X56787000Y-42400000D03*
X52687000Y-46500000D03*
X56787000Y-55100000D03*
X52687000Y-59200000D03*
X61994000Y-55100000D03*
X57894000Y-59200000D03*
D29*
X40095000Y-50030000D03*
D30*
X39970000Y-49530000D03*
D29*
X40095000Y-49030000D03*
X38645000Y-49030000D03*
X38645000Y-49530000D03*
X38645000Y-50030000D03*
D31*
X39370000Y-49530000D03*
D29*
X64680000Y-50935000D03*
D30*
X64805000Y-51435000D03*
D29*
X64680000Y-51935000D03*
X66130000Y-51935000D03*
X66130000Y-51435000D03*
X66130000Y-50935000D03*
D31*
X65405000Y-51435000D03*
M02*
